<?xml version="1.0" encoding="UTF-8" standalone="no"?>
<svg
   version="1.0"
   width="718.26581pt"
   height="110.8385pt"
   viewBox="0 0 718.26581 110.8385"
   preserveAspectRatio="xMidYMid"
   id="svg54"
   sodipodi:docname="casa-nautilus-text-1.0.svg"
   inkscape:version="1.3.2 (091e20e, 2023-11-25, custom)"
   xmlns:inkscape="http://www.inkscape.org/namespaces/inkscape"
   xmlns:sodipodi="http://sodipodi.sourceforge.net/DTD/sodipodi-0.dtd"
   xmlns="http://www.w3.org/2000/svg"
   xmlns:svg="http://www.w3.org/2000/svg">
  <defs
     id="defs54" />
  <sodipodi:namedview
     id="namedview54"
     pagecolor="#ffffff"
     bordercolor="#000000"
     borderopacity="0.25"
     inkscape:showpageshadow="2"
     inkscape:pageopacity="0.0"
     inkscape:pagecheckerboard="0"
     inkscape:deskcolor="#d1d1d1"
     inkscape:document-units="pt"
     showgrid="false"
     inkscape:zoom="0.72416865"
     inkscape:cx="637.97294"
     inkscape:cy="-10.356704"
     inkscape:window-width="1920"
     inkscape:window-height="1009"
     inkscape:window-x="-8"
     inkscape:window-y="-8"
     inkscape:window-maximized="1"
     inkscape:current-layer="g54" />
  <metadata
     id="metadata1">
Created by potrace 1.16, written by Peter Selinger 2001-2019
</metadata>
  <g
     transform="matrix(0.1,0,0,-0.1,-87.367094,476.41925)"
     fill="#ffffff"
     stroke="none"
     id="g54">
    <g
       id="g4"
       transform="translate(-549.8344,-78.146505)">
      <g
         id="g2"
         transform="translate(-1064.6433,2343.4545)">
        <path
           d="m 4816.4927,2076.7784 c -140.5995,68.4739 -129.4394,67.8038 -232.4371,1.4071 -88.0692,-56.5408 -129.9256,-97.0376 -119.4708,-116.93 15.2488,-29.5886 28.0425,-25.4283 70.4351,23.9972 23.562,26.811 48.7224,50.3897 57.2847,51.2197 7.6962,1.3302 54.4974,-17.6076 104.9946,-42.1437 l 90.4688,-45.3036 -4.7777,-42.2752 -3.4115,-41.9083 -122.808,-30.7107 c -171.4856,-43.0215 -236.0645,-88.8745 -255.5834,-182.6831 -16.8854,-87.2462 42.7169,-184.0118 138.4175,-224.2536 81.3444,-33.1074 109.6289,-32.1171 171.7078,9.4068 53.6145,34.8632 56.3467,35.5957 69.7655,12.8372 7.7583,-12.5624 30.7391,-32.7588 50.1576,-45.124 31.1774,-18.0003 37.8728,-18.4021 58.1673,-1.2518 11.8301,10.4905 28.7584,23.8115 37.2224,30.4714 11.6961,8.2578 10.2318,13.7223 -7.0883,23.7224 -41.5692,23.9999 -46.4521,69.5431 -30.9565,290.382 13.4857,187.3583 17.9598,217.1065 38.3878,236.4894 12.3299,11.3565 19.83,24.3468 18.232,27.5788 -2.9636,2.8661 -60.7558,32.7682 -128.7078,65.072 z m -46.7039,-404.8936 c -8.4665,-118.6648 -9.7345,-124.861 -34.8588,-140.3777 -37.1864,-22.4083 -105.7462,-15.1575 -161.6715,15.9765 -41.5696,23.9998 -47.8634,31.098 -55.3804,70.0787 -9.3468,45.8113 6.0908,86.5504 47.5456,120.3516 24.0262,19.6151 203.3775,74.2597 209.0377,64.0642 1.598,-3.2325 -0.1532,-62.2652 -4.6726,-130.0933 z"
           id="path5" />
        <path
           d="m 4153.7888,2104.937 -100.8342,29.3494 -49.1512,-35.1315 c -130.7916,-96.5381 -166.6773,-216.693 -91.3158,-312.1644 23.6768,-30.9906 45.6934,-44.8563 149.1526,-97.6601 151.2237,-78.0716 177.9993,-109.696 142.9989,-170.3179 -16,-27.713 -74.7653,-21.4974 -154.109,15.0747 -83.6744,39.0715 -93.2368,36.5095 -132.7371,-31.9068 -29.5,-51.0953 -32.8299,-46.8631 76.5311,-83.4443 79.8803,-27.6441 81.2461,-27.2778 138.2888,-2.4771 89.2297,38.5506 138.8803,74.548 165.2463,118.2148 29.8661,49.7299 27.9473,92.4064 -6.1839,143.2897 -23.0429,34.0878 -42.8275,47.82 -166.6694,119.3201 l -139.4296,80.5001 -5.1509,41.0789 c -3.7221,27.5526 0.9834,53.7029 12.4833,73.6215 19.5001,33.7751 8.3398,34.445 130.3253,-8.2708 l 59.1931,-21.4737 38.5625,52.7917 c 20.0978,28.8117 36.8298,53.7923 36.0981,56.5239 -1.2322,1.8662 -47.8016,17.2057 -103.2989,33.0818 z"
           id="path8" />
        <path
           d="m 3637.1408,2077.7496 c -142.1286,54.4481 -147.0783,53.7411 -255.2652,-36.0619 -85.5597,-71.4178 -102.5308,-95.4591 -80.6108,-117.3795 16.2639,-16.2633 16.9707,-15.556 67.1755,43.1331 l 50.9116,59.3971 99.7019,-40.3046 98.995,-39.5984 0.7072,-43.1335 1e-4,-42.4263 -96.8737,-28.9912 c -188.797,-57.2759 -260.9224,-118.0868 -263.7503,-222.7386 -1.415,-59.3974 12.7276,-93.3386 58.6892,-139.3001 32.5271,-32.5267 56.5687,-46.6693 107.4803,-63.6396 79.196,-26.8701 106.7731,-21.9203 165.4629,26.87 l 44.5478,37.4769 38.8911,-38.8913 c 45.9618,-45.9617 74.953,-46.6691 110.3086,-4.2429 19.7987,24.0417 20.5059,28.9918 2.8287,42.4271 -39.5982,31.1122 -45.2552,60.8109 -50.205,275.0646 -4.9496,180.3116 -2.8284,222.0314 13.4352,242.5373 10.6064,13.4348 18.3846,28.2842 14.8495,33.2339 -2.1219,4.9495 -60.1044,30.4055 -127.2796,56.5679 z m -12.7276,-455.3764 c 2.8282,-83.4382 -14.8495,-108.1867 -77.0751,-113.8443 -89.8026,-7.778 -176.0695,47.3765 -178.8978,113.8446 -2.8286,69.2968 39.5978,107.4804 166.8771,154.1491 l 82.7315,30.4061 2.1214,-55.8619 c 1.4141,-31.1129 3.5355,-88.3879 4.2429,-128.6936 z"
           id="path11" />
        <path
           d="m 3054.4876,2396.0379 c -66.8729,31.8274 -129.8804,58.9587 -141.1746,60.5211 -28.9183,4.0886 -207.6498,-108.3397 -268.5298,-168.8925 -119.1619,-119.6049 -165.6306,-241.1195 -155.2165,-407.157 13.9331,-232.1331 103.2636,-376.8577 281.8562,-456.1899 37.2849,-16.5781 78.0336,-31.1572 89.8274,-33.5855 30.7848,-5.3205 180.6073,81.1798 216.5065,125 35.1674,41.0883 31.5955,63.2749 -7.3755,40.775 -36.3728,-20.9999 -126.3868,-29.0913 -187.5903,-17.0839 -141.5306,29.1385 -287.1457,223.3508 -315.3275,424.1635 -16.3587,108.3341 28.4133,220.7861 126.0945,317.597 71.8706,71.5171 66.0406,71.6151 222.4471,-11.2891 76.8372,-41.0856 145.4422,-71.9134 150.6384,-68.9133 12.1243,6.9999 99.7076,115.3018 104.7337,128.5957 2.3303,5.9638 -50.5164,35.4974 -116.8896,66.4589 z"
           id="path15" />
      </g>
      <g
         id="g3"
         transform="translate(51.783518,-47.517627)">
        <path
           d="m 4946.0489,4823.1213 c -25.8136,-14.0954 -77.0274,-47.3685 -113.2906,-73.3299 -36.2635,-25.9611 -76.3831,-50.4644 -88.9992,-55.0287 -31.3074,-9.4253 -31.0114,-15.5009 2.3036,-40.5429 15.7229,-11.9077 33.0301,-36.0834 40.1094,-53.0208 10.0066,-26.3415 21.8633,-492.8814 12.9872,-499.8974 -1.2257,-1.8702 -24.4398,32.058 -50.5805,75.3898 -26.1406,43.3319 -90.4048,139.4523 -143.088,214.0811 -110.6286,155.9145 -170.5709,254.5497 -174.6812,288.2557 -3.8145,27.6306 24.4925,71.6393 79.0244,124.6604 73.8572,71.9033 -4.8184,44.864 -139.4208,-47.1149 -51.4468,-35.2598 -101.5517,-67.6558 -112.0651,-71.4599 -14.8351,-6.3183 -12.5525,-12.6265 21.238,-50.8125 l 39.1695,-43.8496 2.7271,-346.6662 c 1.7543,-191.502 -0.4217,-356.3661 -5.6731,-366.8268 -4.2582,-10.5769 -21.1855,-34.7733 -37.531,-54.004 -16.23,-18.2371 -26.5002,-37.172 -23.8691,-40.5002 2.6313,-3.3283 25.4118,2.0606 50.7601,12.1828 39.0736,15.5643 58.2934,16.3354 142.6011,5.4633 96.1104,-13.2606 97.1036,-13.3768 81.5499,8.5799 -8.6535,12.0876 -26.7746,29.3106 -40.7429,38.9997 -48.5096,32.8609 -51.7956,56.4025 -54.8927,339.6821 -1.6701,149.2052 -0.5821,278.9582 1.806,290.7604 3.846,15.659 37.4043,-24.5133 145.2859,-178.0928 205.5874,-290.8656 231.0308,-340.1569 214.4207,-404.6636 -5.4204,-20.5091 -19.8322,-49.027 -33.7269,-64.5175 -37.0132,-40.9756 -30.8745,-48.7416 23.5625,-30.9481 40.8282,13.3454 66.0074,13.4194 150.4313,3.5402 55.6204,-6.5086 99.6708,-8.6431 97.272,-3.3279 -2.3985,5.3147 -25.4853,23.1186 -50.7919,39.1687 -25.1894,17.0431 -50.5588,41.1551 -56.9941,54.9967 -14.7395,28.9093 -21.5782,787.8476 -7.2297,824.4275 5.7163,14.4334 30.4096,44.7689 55.3988,69.0292 24.9889,24.2601 45.7723,46.9986 46.2375,50.9717 1.8596,15.8915 -27.99,10.3226 -73.3082,-15.5855 z"
           id="path1" />
        <path
           d="m 5297.919,4490.3636 c -76,-43 -150,-101 -150,-119 0,-7 7,-18 15,-25 14,-11 23,-5 64,38 26,29 54,52 62,51 8,0 52,-22 99,-48 l 85,-47 -3,-39 c -2,-22 -5,-41 -7,-43 -2,-2 -45,-12 -97,-22 -168,-33 -235,-69 -269,-144 -46,-102 0,-206 118,-265 75,-37 111,-37 173,3 l 55,35 19,-30 c 10,-16 31,-36 47,-45 33,-17 50,-11 88,30 19,21 21,26 8,26 -26,0 -47,41 -47,90 0,25 7,126 16,225 15,168 18,182 42,207 14,15 24,29 21,31 -21,18 -243,127 -256,127 -10,0 -47,-16 -83,-36 z m 156,-396 c -10,-147 -13,-158 -50,-173 -56,-24 -159,9 -193,62 -22,33 -22,83 -1,116 20,29 91,66 163,83 93,23 88,28 81,-88 z"
           id="path2" />
        <path
           d="m 5742.3208,4471.3185 c -35.4941,-52.9922 -35.9423,-55.1828 -15.5006,-73.5169 44.8165,-39.7552 48.5786,-61.5232 43.2141,-261.7337 -2.9572,-112.6022 -0.068,-212.2498 6.9201,-238.3298 11.1292,-41.5348 17.0635,-48.227 74.109,-79.5291 l 63.169,-34.8377 61.9393,23.8435 c 33.9969,12.2153 84.7934,35.1437 111.7007,50.6356 26.9073,15.492 52.9178,26.6027 57.2992,25.706 5.6061,-1.6036 12.3861,-15.316 16.5272,-30.7708 4.9176,-18.3526 22.2028,-36.4972 49.4059,-53.0194 44.6085,-27.3877 51.6288,-26.5419 97.1796,19.8275 21.6802,23.4088 21.6802,23.4088 -2.2972,35.619 -40.606,20.178 -46.6654,77.5652 -38.0662,373.8877 3.2295,154.0863 5.4611,280.9879 3.2703,281.4362 -2.4495,1.4142 -27.1152,-3.1244 -55.6448,-8.6984 l -51.7117,-11.7855 -7.1019,-255.5456 c -4.796,-190.7406 -10.8963,-260.7034 -22.9864,-277.4016 -40.772,-56.4769 -181.973,-54.9711 -233.38,1.6532 -21.9948,24.1295 -22.3923,33.3404 -18.4742,204.1756 4.5002,222.755 -9.8735,284.1258 -84.6709,346.9061 -17.2158,14.022 -19.8548,12.2797 -54.9005,-38.5219 z"
           id="path3" />
        <path
           d="m 6529.6391,4636.7316 c -51.5194,-106.0743 -66.1874,-129.2876 -90.0909,-134.7319 -18.9404,-4.2723 -22.8838,-14.8765 -25.3268,-59.9878 l -1.84,-53.6343 33.9376,-2.0592 c 18.2943,-1.5225 35.1863,-4.7871 37.268,-9.3331 1.665,-3.6369 0.6355,-111.8913 -1.4998,-239.3485 -7.0427,-270.4819 1.6886,-315.9765 65.9926,-345.9267 39.1959,-18.3486 49.6139,-14.6788 98.2306,32.8759 l 17.1655,17.7573 -30.3335,15.8075 c -21.9639,11.9406 -31.8452,23.9141 -36.4572,45.9985 -8.9612,38.7906 -0.035,468.5096 9.057,472.672 4.5462,2.0813 34.5843,3.736 66.3634,3.988 l 59.0897,0.6577 1.2706,50.0738 c 0.9202,26.8164 -2.706,51.5526 -6.1896,54.3567 -4.3929,2.3885 -32.0427,5.127 -62.9127,5.2912 -30.8703,0.164 -57.6108,3.3188 -59.6926,7.8649 -2.0814,4.5461 -2.2126,52.8784 0.1204,107.838 2.3332,54.9595 2.6178,102.3822 1.369,105.1098 -1.2493,2.7277 -12.083,-0.033 -23.903,-5.4443 -12.7294,-5.8285 -34.8248,-36.8407 -51.6183,-69.8255 z"
           id="path4" />
        <path
           d="m 7165.8256,4752.6137 32.2706,-43.2968 -9.2003,-400.9742 c -5.8626,-221.3835 -4.8576,-420.1874 1.8752,-442.6077 10.4928,-35.8314 16.4689,-43.8494 49.0036,-65.7469 35.7267,-24.507 39.3273,-24.3179 74.7954,-1.6238 44.8854,28.4658 49.3327,44.2525 15.588,62.7536 -36.9371,21.1108 -38.4209,59.9153 -27.3029,567.0842 5.5441,248.5846 8.7673,456.7759 7.9803,461.1782 -2.5795,6.8078 -133.9838,-61.1993 -167.659,-86.2986 -6.4143,-4.7808 1.7329,-22.4052 22.6491,-50.468 z"
           id="path6" />
        <path
           d="m 7462.1789,4473.4553 c -6.3639,-9.1924 -16.9706,-25.4559 -23.3345,-36.0625 -11.3137,-15.5563 -8.4853,-24.0416 12.0204,-44.5477 13.435,-13.4351 28.9914,-37.4768 33.9412,-53.7402 4.9497,-16.2635 4.9498,-118.0869 0.707,-226.9813 -8.4853,-210.7179 -2.1213,-243.9518 54.4473,-282.1356 78.4888,-54.4472 111.0157,-51.6188 253.8513,21.9203 63.6396,32.5269 79.1959,35.3554 73.539,11.3138 -1.4141,-5.6569 12.728,-26.8702 32.527,-46.6691 44.5477,-44.5478 79.1959,-46.669 119.5011,-6.364 26.87,26.8701 26.8701,28.2843 3.5355,38.8909 -50.9117,22.6274 -52.3259,33.9411 -36.0624,437.6991 4.2427,117.3797 5.6568,214.9604 2.8284,217.7888 -2.1213,2.1214 -27.5772,0.7072 -55.8615,-3.5355 l -51.6188,-7.7781 -2.1214,-70.0036 c 2e-4,-38.1838 -4.2426,-156.9778 -8.4851,-264.4579 -6.364,-188.7976 -8.4853,-196.5757 -36.0625,-217.0818 -60.8111,-43.8406 -164.7559,-37.4767 -214.9605,12.7279 -28.2843,28.2843 -28.9914,34.6483 -22.6274,189.5046 9.8995,236.1737 0,285.6711 -68.5893,354.2605 -27.5772,27.5772 -36.0625,24.7487 -67.1752,-24.7487 z"
           id="path10" />
        <path
           d="m 8127.1983,4309.0352 c -9.1077,-39.7751 3.2032,-88.452 33.7725,-131.5045 20.2128,-28.9904 46.7917,-48.9545 131.662,-97.9545 116.9135,-67.5001 149.0187,-99.8924 152.7673,-149.3994 1.2584,-23.8205 -2.8756,-32.9808 -18.6698,-42.3372 -30.7225,-19.2127 -57.7392,-14.0069 -148.3417,29.0648 l -83.1742,39.9378 -38.9282,-51.4256 c -20.9642,-28.3108 -37.6962,-53.2916 -37.4642,-56.8897 1.5981,-3.2321 42.2032,-20.9019 90.3705,-39.4737 85.8084,-33.3757 90.2723,-33.6436 143.3154,-15.7706 94.1577,31.0859 152.0044,69.2796 181.5044,120.375 23,39.8372 24.5359,50.4975 14.4212,90.9783 -16.4711,61.471 -52.9064,96.3634 -172.7839,166.7294 -56.6577,33.866 -110.5834,68.4642 -120.7078,78.9282 -26.1768,26.6603 -28.3537,94.8897 -3.3896,130.1287 l 20.098,28.8111 82.9424,-36.3399 82.9422,-36.3397 42.8924,50.2916 c 23.1961,28.177 41.6602,52.1577 40.9282,54.8897 -1.0981,4.0982 -157.1263,61.8493 -188.9731,68.6892 -48.0692,12.7416 -189.4685,-126.1691 -205.184,-201.389 z"
           id="path17" />
        <g
           id="g1"
           transform="rotate(29.10341,12206.269,5864.4026)">
          <path
             d="m 6842,7242 c -44,-22 -51,-29 -45,-47 21,-57 9,-89 -99,-262 -59,-93 -112,-181 -117,-197 -16,-41 -13,-77 10,-115 19,-31 22,-33 61,-27 56,9 60,13 42,41 -23,35 -9,67 103,247 52,84 104,171 114,193 26,56 22,184 -6,191 -6,2 -34,-9 -63,-24 z"
             id="path7" />
          <path
             style="font-variation-settings:'wght' 900;fill:#000000;stroke-width:7.5"
             d="m 6973.1728,7384.3468 c 65.1359,-2.1507 100.3304,-30.4227 100.3304,-30.4227 l 34.3066,90.6211 c 0,0 -61.3884,30.6875 -115.8658,-1.2945 -5.8319,-3.4237 -21.9507,-58.7989 -18.7712,-58.9039 z"
             id="path55"
             sodipodi:nodetypes="sccss" />
        </g>
      </g>
    </g>
  </g>
</svg>
