<?xml version="1.0" encoding="UTF-8" standalone="no"?>
<svg
   version="1.0"
   width="765.61389pt"
   height="803.06335pt"
   viewBox="0 0 765.61389 803.06335"
   preserveAspectRatio="xMidYMid"
   id="svg54"
   sodipodi:docname="casa-nautilus-1.0.svg"
   inkscape:version="1.3.2 (091e20e, 2023-11-25, custom)"
   xmlns:inkscape="http://www.inkscape.org/namespaces/inkscape"
   xmlns:sodipodi="http://sodipodi.sourceforge.net/DTD/sodipodi-0.dtd"
   xmlns="http://www.w3.org/2000/svg"
   xmlns:svg="http://www.w3.org/2000/svg">
  <defs
     id="defs54" />
  <sodipodi:namedview
     id="namedview54"
     pagecolor="#ffffff"
     bordercolor="#000000"
     borderopacity="0.25"
     inkscape:showpageshadow="2"
     inkscape:pageopacity="0.0"
     inkscape:pagecheckerboard="0"
     inkscape:deskcolor="#d1d1d1"
     inkscape:document-units="pt"
     showgrid="false"
     inkscape:zoom="0.72416865"
     inkscape:cx="386.65026"
     inkscape:cy="762.94382"
     inkscape:window-width="1920"
     inkscape:window-height="1009"
     inkscape:window-x="-8"
     inkscape:window-y="-8"
     inkscape:window-maximized="1"
     inkscape:current-layer="g54" />
  <metadata
     id="metadata1">
Created by potrace 1.16, written by Peter Selinger 2001-2019
</metadata>
  <g
     transform="matrix(0.1,0,0,-0.1,-70.208471,825.97812)"
     fill="#1e2434"
     stroke="none"
     id="g54">
    <path
       d="m 4359,8228 c -24,-17 -71,-56 -104,-86 -33,-30 -70,-59 -82,-65 -30,-13 -29,-19 7,-40 17,-10 37,-32 46,-48 13,-25 79,-487 71,-495 -1,-2 -28,29 -59,69 -31,40 -106,128 -167,196 -128,142 -199,233 -207,266 -7,27 16,74 64,133 65,80 -10,44 -133,-63 -47,-41 -93,-79 -103,-84 -14,-8 -11,-14 27,-48 l 44,-39 43,-344 c 24,-190 41,-354 37,-365 -3,-11 -17,-37 -31,-58 -14,-20 -22,-40 -19,-43 3,-3 25,5 49,18 37,20 56,23 141,22 97,-2 98,-2 80,18 -10,11 -30,26 -45,34 -52,27 -58,50 -94,331 -19,148 -33,277 -32,289 2,16 40,-20 165,-160 238,-265 269,-311 260,-377 -3,-21 -14,-51 -26,-68 -32,-45 -25,-52 27,-28 39,18 64,21 149,21 56,0 100,3 97,8 -3,5 -28,20 -55,33 -27,14 -55,35 -63,48 -18,27 -113,780 -103,818 4,15 25,48 47,75 22,27 40,52 40,56 0,16 -29,7 -71,-24 z"
       id="path1" />
    <path
       d="m 4910,7864 c -76,-43 -150,-101 -150,-119 0,-7 7,-18 15,-25 14,-11 23,-5 64,38 26,29 54,52 62,51 8,0 52,-22 99,-48 l 85,-47 -3,-39 c -2,-22 -5,-41 -7,-43 -2,-2 -45,-12 -97,-22 -168,-33 -235,-69 -269,-144 -46,-102 0,-206 118,-265 75,-37 111,-37 173,3 l 55,35 19,-30 c 10,-16 31,-36 47,-45 33,-17 50,-11 88,30 19,21 21,26 8,26 -26,0 -47,41 -47,90 0,25 7,126 16,225 15,168 18,182 42,207 14,15 24,29 21,31 -21,18 -243,127 -256,127 -10,0 -47,-16 -83,-36 z m 156,-396 c -10,-147 -13,-158 -50,-173 -56,-24 -159,9 -193,62 -22,33 -22,83 -1,116 20,29 91,66 163,83 93,23 88,28 81,-88 z"
       id="path2" />
    <path
       d="m 5575,7766 c -48,-42 -49,-44 -34,-67 33,-50 31,-72 -26,-264 -32,-108 -55,-205 -55,-232 0,-43 4,-51 51,-96 l 52,-50 66,7 c 36,3 91,12 121,20 30,8 58,12 62,10 5,-3 8,-18 8,-34 0,-19 12,-41 34,-64 36,-38 43,-39 99,-6 27,17 27,17 7,35 -34,30 -25,87 60,371 43,148 78,270 76,271 -2,2 -27,4 -56,6 l -53,2 -73,-245 c -54,-183 -78,-249 -94,-262 -54,-44 -190,-6 -225,62 -15,29 -13,38 35,202 62,214 64,277 8,357 -13,18 -16,17 -63,-23 z"
       id="path3" />
    <path
       d="m 6550,7608 c -91,-75 -114,-90 -138,-85 -19,4 -27,-4 -48,-44 l -24,-48 30,-16 c 16,-9 30,-19 30,-24 0,-4 -46,-102 -101,-217 -119,-243 -130,-288 -84,-342 28,-33 39,-34 103,-11 l 23,9 -21,27 c -15,20 -19,35 -14,57 8,39 195,426 205,426 5,0 33,-11 62,-24 l 54,-24 22,45 c 12,24 19,48 17,52 -3,4 -27,18 -55,31 -28,13 -51,27 -51,32 0,5 20,49 45,98 25,49 45,92 45,95 0,3 -11,5 -24,5 -14,0 -47,-19 -76,-42 z"
       id="path4" />
    <path
       d="m 2808,7475 c -156,-11 -146,-6 -202,-115 -48,-93 -64,-149 -45,-161 28,-18 37,-8 49,56 7,35 17,68 24,73 6,5 56,12 112,16 l 101,6 17,-39 18,-38 -91,-88 c -127,-123 -160,-195 -130,-286 29,-84 129,-138 232,-125 87,12 111,27 144,94 29,57 31,59 54,46 13,-7 43,-13 66,-14 36,0 42,3 51,28 5,15 13,35 17,45 6,13 2,17 -18,17 -48,0 -75,37 -172,236 -82,169 -93,197 -85,224 5,16 5,31 2,33 -4,1 -69,-2 -144,-8 z m 162,-374 c 52,-107 54,-113 40,-139 -21,-38 -84,-66 -148,-67 -48,0 -57,3 -83,33 -31,35 -38,78 -19,128 11,29 139,166 149,160 3,-2 31,-54 61,-115 z"
       id="path5" />
    <path
       d="m 7400,7226 v -54 l -247,-316 c -137,-174 -255,-334 -263,-356 -13,-35 -13,-45 0,-82 14,-41 17,-43 59,-46 53,-4 66,6 50,41 -17,39 5,71 317,471 153,196 280,361 282,365 2,7 -144,31 -186,31 -8,0 -12,-19 -12,-54 z"
       id="path6" />
    <path
       d="m 6842,7242 c -44,-22 -51,-29 -45,-47 21,-57 9,-89 -99,-262 -59,-93 -112,-181 -117,-197 -16,-41 -13,-77 10,-115 19,-31 22,-33 61,-27 56,9 60,13 42,41 -23,35 -9,67 103,247 52,84 104,171 114,193 26,56 22,184 -6,191 -6,2 -34,-9 -63,-24 z"
       id="path7" />
    <path
       d="m 2143,7111 -102,-25 -25,-55 c -65,-149 -36,-271 77,-316 36,-15 62,-16 178,-10 170,8 209,-6 209,-76 0,-32 -54,-56 -141,-64 -92,-8 -99,-15 -99,-94 0,-59 -5,-57 108,-34 83,16 84,17 121,67 58,78 83,134 84,185 1,58 -22,94 -77,121 -37,18 -61,20 -204,20 h -161 l -25,33 c -17,22 -26,47 -26,70 0,39 -10,34 117,58 l 62,11 7,65 c 3,35 5,65 3,67 -2,1 -50,-9 -106,-23 z"
       id="path8" />
    <path
       d="m 4211,6965 c -154,-28 -272,-89 -370,-190 -90,-93 -130,-173 -138,-277 -3,-41 0,-91 6,-114 26,-97 179,-187 357,-209 l 51,-6 7,62 c 3,34 4,64 2,67 -3,2 -29,-1 -60,-8 -104,-21 -230,30 -263,107 -11,29 -12,45 -2,91 17,84 46,156 73,181 13,13 27,39 31,59 16,88 81,136 245,181 90,25 283,44 325,32 l 30,-9 -38,-16 c -21,-9 -96,-33 -165,-53 -70,-19 -138,-42 -152,-50 l -25,-14 30,6 c 89,15 274,35 328,35 73,0 203,-22 267,-45 99,-35 203,-125 241,-208 32,-72 21,-71 -53,6 -104,106 -175,139 -348,162 -297,40 -534,3 -650,-101 -105,-95 -108,-233 -7,-308 28,-21 157,-37 157,-20 0,5 -21,17 -48,26 -66,24 -103,65 -109,123 -6,45 -5,47 53,104 42,42 75,64 117,80 133,49 353,65 512,37 201,-35 314,-111 351,-232 16,-53 61,-129 98,-163 33,-31 57,-17 93,56 24,50 28,70 28,143 0,74 -4,93 -29,144 -76,155 -286,278 -547,321 -114,18 -297,18 -398,0 z"
       id="path9" />
    <path
       d="m 7595,6693 c -11,-2 -30,-6 -42,-9 -19,-3 -23,-11 -23,-40 0,-19 -6,-47 -14,-62 -8,-15 -80,-87 -160,-161 -155,-143 -174,-171 -161,-238 17,-94 42,-115 195,-164 68,-22 81,-31 60,-44 -5,-3 -10,-28 -10,-56 0,-63 23,-89 80,-89 38,0 39,1 30,25 -20,52 -13,61 284,335 86,80 156,148 156,152 0,3 -19,20 -42,37 l -42,31 -51,-48 c -27,-27 -114,-108 -193,-181 -138,-129 -145,-133 -179,-128 -74,12 -143,90 -143,161 0,40 4,45 118,150 174,160 202,202 202,299 0,39 -8,43 -65,30 z"
       id="path10" />
    <path
       d="m 1585,6636 c -139,-62 -142,-66 -155,-206 -10,-111 -5,-140 26,-140 23,0 23,1 17,78 l -6,78 99,42 98,42 31,-30 30,-30 -48,-89 c -93,-174 -101,-268 -29,-344 41,-43 75,-57 140,-57 46,0 73,7 121,31 75,37 91,60 98,136 l 5,58 h 55 c 65,0 86,20 81,75 -3,31 -6,35 -28,32 -50,-6 -75,11 -230,159 -131,124 -159,155 -162,181 -2,17 -7,33 -13,34 -5,2 -64,-21 -130,-50 z m 313,-331 c 61,-57 66,-87 26,-135 -58,-69 -158,-91 -207,-46 -51,47 -48,104 9,227 l 37,80 41,-38 c 23,-21 65,-60 94,-88 z"
       id="path11" />
    <path
       d="m 5221,6462 -11,-128 44,-47 c 75,-78 94,-186 37,-216 -55,-30 -158,3 -212,67 -17,21 -55,89 -85,152 -91,190 -98,203 -121,218 -23,14 -23,14 -23,-35 0,-69 21,-142 61,-210 45,-76 199,-230 273,-274 120,-69 60,-76 -79,-9 -49,24 -106,63 -148,101 -58,52 -75,76 -117,163 -26,55 -57,139 -69,185 -23,96 -35,116 -57,87 -21,-29 -18,-196 4,-262 53,-153 208,-326 360,-401 62,-31 86,-37 155,-41 45,-2 100,1 123,7 58,16 118,62 150,118 24,40 29,61 32,138 5,108 -13,164 -88,279 -45,70 -193,236 -210,236 -4,0 -12,-58 -19,-128 z"
       id="path12" />
    <path
       d="m 4211,6491 c -38,-5 -46,-10 -52,-34 -4,-16 -12,-198 -18,-405 -6,-207 -13,-434 -16,-503 l -6,-126 31,-7 c 17,-3 57,-3 89,0 l 58,7 6,495 c 4,408 8,497 19,509 12,11 24,12 63,3 27,-6 55,-16 62,-22 24,-20 11,-516 -22,-837 -8,-78 -12,-148 -9,-153 6,-10 195,-4 258,9 l 28,5 -5,477 c -3,262 -9,494 -14,516 -14,67 -43,75 -253,73 -96,0 -195,-4 -219,-7 z"
       id="path13" />
    <path
       d="m 5582,6459 c -35,-11 -62,-24 -60,-28 2,-4 22,-46 46,-92 102,-199 91,-384 -30,-515 -62,-68 -133,-97 -243,-102 -50,-2 -116,1 -147,7 -89,19 -212,84 -278,147 l -59,56 -5,-34 c -15,-96 -28,-285 -23,-338 6,-69 26,-106 65,-121 22,-8 29,-7 42,10 37,50 143,47 241,-6 32,-17 54,-23 69,-18 28,9 100,57 168,111 30,25 75,49 107,58 113,33 321,281 444,530 43,85 111,274 111,306 0,49 -319,70 -448,29 z"
       id="path14" />
    <path
       d="m 835,6264 c -61,-42 -116,-83 -123,-92 -18,-23 -10,-234 12,-317 44,-163 126,-264 275,-338 208,-104 378,-99 536,16 33,24 66,52 74,61 20,24 20,197 0,250 -18,51 -39,59 -39,14 0,-42 -38,-124 -79,-171 -96,-108 -337,-137 -525,-61 -102,40 -177,135 -212,268 -26,98 -29,93 121,187 74,46 135,90 135,96 0,14 -50,144 -59,155 -4,5 -56,-26 -116,-68 z"
       id="path15" />
    <path
       d="m 3925,6091 c -4,-7 -32,-23 -63,-37 -32,-14 -76,-44 -100,-67 -85,-83 -210,-305 -242,-431 -31,-123 -32,-120 20,-128 125,-21 120,-22 228,21 120,48 149,50 191,15 17,-14 31,-24 31,-22 0,1 10,44 22,93 17,75 22,130 25,323 3,217 3,232 -14,232 -10,0 -34,3 -54,6 -23,4 -39,2 -44,-5 z"
       id="path16" />
    <path
       d="m 8046,5950 c -39,-12 -75,-47 -97,-95 -15,-32 -19,-65 -19,-163 0,-135 -12,-179 -53,-207 -20,-13 -30,-14 -46,-5 -32,17 -41,43 -49,143 l -7,92 -64,8 c -35,4 -65,6 -68,4 -2,-3 3,-47 11,-98 14,-91 16,-95 58,-132 74,-66 136,-97 195,-97 46,0 56,4 86,33 45,45 57,94 58,233 1,66 4,130 8,144 10,36 68,72 111,68 l 35,-3 10,-90 10,-90 65,-12 c 36,-6 66,-10 68,-8 3,3 -25,167 -35,198 -13,48 -204,101 -277,77 z"
       id="path17" />
    <path
       d="m 3450,5714 c -25,-25 -59,-54 -76,-64 -40,-25 -251,-276 -241,-287 2,-1 64,12 137,31 l 134,33 13,67 c 8,38 31,112 52,167 22,54 36,99 32,99 -4,0 -27,-21 -51,-46 z"
       id="path18" />
    <path
       d="m 3845,5381 -30,-6 4,-260 c 2,-143 5,-262 7,-264 2,-2 24,-6 50,-9 l 47,-5 -6,183 c -4,101 -7,225 -7,277 0,102 2,99 -65,84 z"
       id="path19" />
    <path
       d="m 4976,5298 c -3,-51 -7,-175 -8,-276 l -3,-182 h 37 c 68,0 68,2 68,280 0,137 -3,251 -7,253 -5,2 -24,7 -45,11 l -36,7 z"
       id="path20" />
    <path
       d="m 3472,5328 c -13,-13 -18,-423 -4,-431 4,-3 26,-8 50,-12 l 42,-7 v 209 c 0,114 -3,218 -6,231 -5,17 -14,22 -38,22 -18,0 -37,-5 -44,-12 z"
       id="path21" />
    <path
       d="m 3954,5326 c -3,-8 -4,-27 -2,-43 l 3,-28 125,-6 c 69,-4 286,-10 483,-13 l 357,-7 v 55 56 h -480 c -405,0 -481,-2 -486,-14 z"
       id="path22" />
    <path
       d="m 5325,5119 c -4,-122 -3,-225 2,-229 4,-5 27,-6 51,-3 l 42,6 v 208 c 0,228 -3,239 -59,239 h -28 z"
       id="path23" />
    <path
       d="m 3267,5303 c -17,-4 -18,-18 -15,-188 2,-101 6,-186 9,-190 4,-3 19,-7 35,-8 l 29,-2 -1,60 c -5,184 -17,335 -28,334 -6,-1 -19,-3 -29,-6 z"
       id="path24" />
    <path
       d="m 5577,5278 c -4,-18 -9,-109 -13,-202 l -7,-169 24,6 c 13,4 30,7 37,7 9,0 12,45 12,189 0,163 -2,190 -16,195 -27,10 -32,7 -37,-26 z"
       id="path25" />
    <path
       d="m 3160,5251 c -25,-7 -25,-8 -28,-128 l -3,-121 46,-18 c 25,-9 47,-15 49,-13 9,10 -18,289 -28,288 -6,-1 -22,-4 -36,-8 z"
       id="path26" />
    <path
       d="m 5677,5223 c -13,-86 -20,-253 -10,-253 6,0 27,7 47,15 l 36,15 v 125 c 0,93 -3,125 -12,125 -7,0 -22,3 -34,6 -18,5 -22,0 -27,-33 z"
       id="path27" />
    <path
       d="m 3006,5155 c -11,-27 -26,-66 -33,-85 -8,-19 -16,-58 -18,-85 -3,-28 -14,-90 -25,-139 -12,-49 -18,-96 -15,-105 4,-9 13,-79 20,-156 8,-77 21,-160 29,-185 53,-162 100,-256 170,-344 23,-28 49,-62 57,-76 32,-49 239,-171 329,-193 36,-9 111,-19 168,-23 91,-5 111,-3 172,17 39,12 83,34 100,48 l 29,26 7,156 6,156 -43,7 c -53,8 -112,41 -244,134 -86,60 -107,82 -151,149 -66,99 -88,145 -129,257 l -33,91 -62,7 c -121,14 -218,61 -266,129 -25,37 -30,56 -39,153 l -10,111 z"
       id="path28" />
    <path
       d="m 3955,5017 c 8,-97 11,-104 38,-110 60,-15 403,-28 647,-25 l 275,3 7,95 c 4,52 4,97 0,101 -4,4 -225,9 -491,12 l -483,4 z"
       id="path29" />
    <path
       d="m 3586,5018 c 3,-40 10,-77 14,-81 4,-4 36,-15 71,-23 35,-8 74,-16 87,-19 23,-6 23,-5 20,92 l -3,98 -98,3 -98,3 z"
       id="path30" />
    <path
       d="m 5106,5038 c -7,-65 -8,-133 -1,-140 6,-5 172,26 180,34 3,2 8,39 13,81 l 8,77 h -97 -96 z"
       id="path31" />
    <path
       d="m 2843,4901 c -7,-11 -26,-75 -43,-143 -17,-68 -44,-163 -60,-213 -45,-140 -79,-350 -80,-487 0,-64 6,-95 38,-185 38,-108 76,-175 153,-268 97,-118 168,-189 229,-227 36,-23 79,-57 97,-76 24,-26 35,-32 45,-24 14,11 81,-2 185,-34 100,-32 279,-6 394,56 20,11 43,20 51,20 7,0 36,22 63,50 l 49,50 8,161 c 5,89 7,164 4,166 -3,3 -24,-2 -46,-11 -69,-27 -178,-41 -316,-40 -110,2 -139,5 -179,23 -72,32 -208,148 -341,292 -164,178 -240,418 -235,747 2,89 1,162 -1,162 -2,0 -9,-9 -15,-19 z"
       id="path32" />
    <path
       d="m 4146,4819 c -9,-24 -100,-1534 -126,-2069 -5,-118 -14,-314 -20,-435 -34,-705 -85,-838 -325,-852 -46,-3 -121,2 -178,11 -86,13 -117,24 -230,80 -161,80 -265,157 -443,329 -113,109 -133,132 -118,138 11,4 64,22 119,39 145,46 205,82 285,167 67,72 113,155 94,172 -5,4 -53,13 -106,19 -168,20 -433,119 -633,236 -125,74 -160,100 -258,195 -96,93 -155,178 -237,340 -35,71 -65,120 -70,115 -13,-13 -69,-297 -86,-433 -18,-149 -18,-441 0,-546 38,-215 134,-538 187,-631 40,-70 111,-166 168,-227 48,-52 129,-113 137,-104 3,3 0,41 -6,85 -12,78 -2,223 15,240 10,10 100,-90 216,-240 234,-303 575,-581 926,-756 43,-22 184,-76 313,-121 129,-46 280,-104 336,-131 103,-48 252,-139 275,-166 7,-8 21,-19 30,-25 17,-8 18,-6 12,23 -20,110 -93,238 -181,320 -106,99 -333,224 -587,322 -160,62 -246,104 -390,189 -185,108 -281,176 -385,271 -103,94 -384,385 -543,563 -55,62 -104,110 -108,107 -5,-3 -9,-22 -9,-43 0,-52 -18,-143 -31,-156 -35,-34 -99,169 -199,635 -53,247 -78,451 -65,536 l 7,49 48,-145 c 134,-409 298,-711 574,-1054 153,-190 398,-427 526,-508 92,-59 211,-124 286,-156 81,-36 603,-197 611,-189 3,3 -7,21 -21,40 -60,79 -125,273 -110,332 10,41 86,75 123,56 9,-6 57,-60 106,-120 48,-61 89,-111 90,-111 7,0 26,109 39,228 34,296 61,870 76,1592 11,570 18,1776 10,1784 -3,3 -36,8 -73,12 -52,5 -68,4 -71,-7 z"
       id="path33" />
    <path
       d="m 4517,4813 -79,-4 6,-352 c 4,-194 11,-786 16,-1317 5,-531 13,-1182 16,-1447 l 7,-483 44,-41 c 58,-53 132,-86 235,-104 45,-8 85,-15 88,-15 3,1 -26,16 -65,34 -38,18 -94,54 -122,80 -64,58 -69,89 -22,159 30,46 104,103 147,114 16,4 57,-12 135,-50 128,-64 198,-85 313,-94 169,-12 365,52 579,191 153,100 363,283 503,438 198,220 401,594 586,1078 l 25,65 v -45 c 2,-90 -78,-364 -161,-553 -121,-278 -374,-657 -587,-881 -91,-95 -235,-218 -339,-287 -321,-215 -858,-402 -1113,-387 -93,6 -153,37 -207,108 l -35,45 5,-405 c 3,-223 9,-413 13,-422 6,-16 14,-12 55,26 151,135 368,253 620,336 216,71 377,147 548,259 262,172 468,342 589,486 83,98 198,265 262,378 18,31 36,57 41,57 18,0 41,-101 51,-220 5,-68 12,-126 14,-128 2,-2 28,33 58,79 282,440 415,884 378,1267 -15,158 -58,325 -110,438 -23,48 -43,85 -45,83 -2,-2 -34,-53 -71,-114 -79,-128 -180,-272 -259,-367 -151,-183 -385,-303 -741,-383 -66,-15 -121,-28 -123,-30 -9,-9 38,-77 87,-125 89,-87 237,-153 400,-179 35,-6 65,-12 67,-14 7,-7 -106,-134 -167,-188 -180,-157 -399,-311 -529,-372 -79,-38 -93,-41 -190,-45 -126,-5 -205,8 -285,47 -123,60 -160,111 -190,253 -29,136 -61,500 -79,903 -14,306 -29,539 -46,755 -17,200 -39,503 -90,1224 -5,76 -12,141 -15,145 -8,7 -116,9 -218,4 z"
       id="path34" />
    <path
       d="m 3563,4797 c -35,-6 -63,-15 -63,-22 0,-13 23,-48 61,-92 17,-20 32,-54 39,-90 7,-32 17,-67 22,-78 17,-33 124,-128 173,-154 26,-13 58,-41 73,-62 26,-37 29,-38 84,-36 l 56,2 6,90 c 3,50 11,156 16,237 14,206 15,195 -11,172 -17,-16 -36,-19 -105,-18 -73,0 -90,4 -144,32 -65,35 -94,37 -207,19 z"
       id="path35" />
    <path
       d="m 4850,4696 c 0,-53 2,-58 32,-76 43,-26 137,-64 144,-58 3,3 -8,32 -24,64 -17,33 -33,69 -36,80 -5,15 -17,23 -44,27 -20,3 -45,8 -54,12 -16,6 -18,0 -18,-49 z"
       id="path36" />
    <path
       d="m 5015,4419 c -27,-10 -72,-35 -99,-55 l -48,-36 6,-111 c 13,-198 35,-470 40,-475 3,-2 17,-1 32,2 23,6 25,10 17,34 -4,15 -8,77 -8,137 0,102 2,114 29,162 86,156 274,283 418,283 27,0 38,4 36,13 -7,21 -50,35 -157,51 -136,21 -205,19 -266,-5 z"
       id="path37" />
    <path
       d="m 5381,4328 c -78,-11 -142,-41 -237,-113 -120,-90 -169,-191 -162,-331 4,-81 20,-112 78,-151 51,-35 57,-31 62,47 7,92 52,186 123,256 57,55 125,91 236,125 64,19 85,21 193,15 l 121,-6 -25,20 c -51,42 -156,107 -195,122 -57,22 -120,27 -194,16 z"
       id="path38" />
    <path
       d="m 5505,4132 c -82,-11 -181,-66 -254,-141 -35,-36 -72,-84 -82,-106 -22,-48 -24,-126 -5,-163 15,-28 64,-78 69,-71 2,2 15,24 30,50 39,68 96,121 178,167 97,53 164,71 279,74 l 95,3 109,-52 c 60,-29 115,-53 122,-53 17,0 19,26 3,36 -6,3 -31,37 -55,74 -55,86 -87,117 -155,155 -50,28 -62,30 -169,31 -63,1 -138,-1 -165,-4 z"
       id="path39" />
    <path
       d="m 5511,3858 c -138,-62 -231,-152 -231,-224 0,-33 37,-114 52,-114 6,0 32,15 58,34 93,67 123,77 244,83 155,8 185,-2 235,-75 57,-84 96,-116 192,-160 47,-22 104,-51 127,-66 l 42,-26 v 22 c -1,51 -30,184 -61,275 -40,120 -69,153 -199,223 -108,58 -156,70 -279,70 -79,-1 -94,-4 -180,-42 z"
       id="path40" />
    <path
       d="m 2633,3688 c 2,-68 11,-175 20,-238 9,-63 19,-140 22,-171 9,-103 65,-229 137,-306 73,-77 237,-207 295,-233 131,-59 192,-72 351,-77 218,-8 354,22 444,99 l 28,23 14,265 c 9,145 13,266 11,268 -2,3 -27,-16 -55,-41 -98,-89 -231,-131 -410,-131 -96,0 -113,3 -200,36 -131,49 -193,80 -256,129 -54,42 -196,192 -226,239 -8,14 -36,49 -61,78 -25,30 -59,82 -77,118 -17,35 -33,64 -36,64 -3,0 -3,-55 -1,-122 z"
       id="path41" />
    <path
       d="m 5008,3641 c -82,-52 -87,-61 -81,-133 3,-34 7,-65 9,-67 2,-2 24,15 49,38 76,70 130,85 200,55 76,-31 81,10 9,76 -75,69 -116,75 -186,31 z"
       id="path42" />
    <path
       d="m 5587,3589 c -78,-9 -143,-37 -194,-85 -34,-33 -36,-36 -30,-85 9,-73 20,-83 87,-75 30,4 76,10 101,13 31,3 64,-1 98,-12 43,-14 59,-27 93,-73 23,-32 63,-77 89,-102 25,-25 59,-67 74,-95 61,-110 109,-172 158,-206 82,-55 105,-78 112,-110 4,-17 11,-27 16,-22 15,15 38,176 45,323 9,201 4,210 -203,313 -71,36 -101,58 -135,99 -24,28 -59,69 -79,90 -35,37 -39,38 -100,37 -35,-1 -94,-5 -132,-10 z"
       id="path43" />
    <path
       d="m 5094,3500 c -53,-27 -122,-96 -108,-110 7,-7 26,-4 59,11 59,26 107,22 170,-16 25,-14 60,-45 77,-68 l 31,-42 -6,58 c -7,73 -41,135 -87,158 -59,29 -91,31 -136,9 z"
       id="path44" />
    <path
       d="m 5047,3366 c -45,-16 -67,-34 -67,-52 0,-11 7,-12 28,-7 56,16 127,8 175,-20 48,-28 87,-80 87,-115 0,-11 4,-23 9,-26 9,-6 31,36 31,59 0,20 -70,147 -89,162 -21,16 -126,16 -174,-1 z"
       id="path45" />
    <path
       d="m 5450,3300 c -50,-12 -80,-51 -80,-105 0,-54 23,-74 118,-106 37,-12 89,-33 116,-46 60,-30 149,-112 170,-158 9,-18 23,-93 31,-165 9,-73 22,-148 30,-167 14,-33 17,-35 49,-29 19,4 85,22 145,42 l 111,35 v 64 c 0,35 -4,75 -9,88 -6,14 -42,47 -82,74 -42,28 -80,63 -93,85 -76,132 -109,178 -189,268 -79,87 -97,102 -141,115 -53,16 -120,18 -176,5 z"
       id="path46" />
    <path
       d="m 5095,3279 c -16,-3 -49,-7 -72,-8 -87,-2 -97,-27 -24,-58 73,-30 85,-60 83,-201 l -1,-114 32,21 c 18,11 54,48 81,82 47,61 48,64 44,120 -7,99 -75,174 -143,158 z"
       id="path47" />
    <path
       d="m 4953,3168 c 4,-18 9,-97 13,-176 4,-78 11,-145 15,-148 5,-2 20,13 35,36 22,33 28,56 34,132 8,107 -1,135 -53,167 -46,28 -50,27 -44,-11 z"
       id="path48" />
    <path
       d="m 5385,3071 c -6,-5 -25,-11 -44,-13 -29,-2 -45,-15 -97,-78 -35,-41 -63,-80 -63,-87 -1,-12 32,-23 109,-38 52,-10 74,-28 134,-109 106,-143 141,-247 140,-411 0,-98 -4,-120 -33,-205 -42,-118 -81,-197 -138,-277 -47,-67 -47,-75 -5,-44 15,10 38,22 52,26 46,14 135,63 193,107 56,42 197,201 197,223 0,6 -23,33 -51,60 -87,85 -112,162 -75,233 13,25 25,33 57,38 32,5 39,10 34,23 -18,43 -26,85 -36,191 -5,63 -14,131 -20,151 -12,47 -71,101 -147,135 -31,15 -85,39 -120,55 -69,32 -74,33 -87,20 z"
       id="path49" />
    <path
       d="m 2800,2841 c 28,-90 46,-127 102,-217 51,-81 54,-84 98,-89 124,-17 206,-37 246,-60 43,-26 44,-27 44,-80 0,-30 -9,-77 -19,-105 l -19,-50 82,-26 c 195,-62 547,-56 561,10 6,33 28,451 24,463 -4,11 -117,-32 -239,-91 -30,-14 -71,-26 -90,-25 -65,0 -225,26 -320,52 -169,45 -244,80 -325,149 -81,68 -131,109 -151,120 -8,5 -6,-11 6,-51 z"
       id="path50" />
    <path
       d="m 5060,2814 c -36,-15 -69,-30 -74,-35 -5,-5 7,-24 30,-46 54,-53 134,-175 150,-231 9,-28 14,-94 14,-180 v -135 l -41,-96 c -22,-53 -54,-118 -71,-145 -34,-56 -34,-75 1,-166 35,-90 31,-88 102,-55 156,74 257,211 324,441 25,82 26,98 20,204 -10,170 -57,276 -165,373 -49,45 -133,84 -195,93 -18,3 -56,-6 -95,-22 z"
       id="path51" />
    <path
       d="m 4984,2623 c 8,-88 25,-362 32,-515 3,-76 9,-138 14,-138 17,0 71,123 86,195 23,110 16,279 -15,358 -23,58 -93,157 -112,157 -6,0 -8,-21 -5,-57 z"
       id="path52" />
    <path
       d="m 4357,2375 c -4,-115 -10,-268 -14,-339 l -6,-128 22,11 c 20,11 21,18 20,144 -1,73 -4,220 -8,327 l -6,195 z"
       id="path53" />
    <path
       d="m 3310,2100 c 47,-43 101,-87 120,-96 19,-9 50,-30 68,-45 18,-16 56,-41 84,-55 28,-14 62,-37 76,-51 20,-20 41,-27 101,-35 42,-5 83,-10 91,-11 12,-2 17,27 27,163 7,90 11,165 9,167 -1,1 -40,-5 -87,-13 -122,-24 -271,-15 -422,25 -65,17 -126,31 -135,31 -10,0 16,-32 68,-80 z"
       id="path54" />
    <path
       style="font-variation-settings:'wght' 900;fill:#000000;stroke-width:7.5"
       d="m 6973.1728,7384.3468 c 65.1359,-2.1507 100.3304,-30.4227 100.3304,-30.4227 l 34.3066,90.6211 c 0,0 -61.3884,30.6875 -115.8658,-1.2945 -5.8319,-3.4237 -21.9507,-58.7989 -18.7712,-58.9039 z"
       id="path55"
       sodipodi:nodetypes="sccss" />
  </g>
</svg>
