<?xml version="1.0" encoding="UTF-8" standalone="no"?>
<svg
   version="1.0"
   width="1350.000000pt"
   height="1350.000000pt"
   viewBox="0 0 1350.000000 1350.000000"
   preserveAspectRatio="xMidYMid meet"
   id="svg48"
   sodipodi:docname="sgl-logo-v1.svg"
   xml:space="preserve"
   inkscape:version="1.3.1 (9b9bdc1480, 2023-11-25, custom)"
   xmlns:inkscape="http://www.inkscape.org/namespaces/inkscape"
   xmlns:sodipodi="http://sodipodi.sourceforge.net/DTD/sodipodi-0.dtd"
   xmlns="http://www.w3.org/2000/svg"
   xmlns:svg="http://www.w3.org/2000/svg"><defs
     id="defs48" /><sodipodi:namedview
     id="namedview48"
     pagecolor="#ffffff"
     bordercolor="#000000"
     borderopacity="0"
     inkscape:showpageshadow="2"
     inkscape:pageopacity="0.0"
     inkscape:pagecheckerboard="0"
     inkscape:deskcolor="#d1d1d1"
     inkscape:document-units="pt"
     inkscape:zoom="0.47222222"
     inkscape:cx="833.29412"
     inkscape:cy="891.52941"
     inkscape:window-width="1920"
     inkscape:window-height="1048"
     inkscape:window-x="0"
     inkscape:window-y="32"
     inkscape:window-maximized="0"
     inkscape:current-layer="layer1"
     showguides="true"
     inkscape:lockguides="false" /><metadata
     id="metadata1">
Created by potrace 1.10, written by Peter Selinger 2001-2011
</metadata><g
     inkscape:groupmode="layer"
     id="layer1"
     inkscape:label="Layer 2"
     style="display:inline"><g
       transform="matrix(0.1,0,0,-0.1,182.31567,1017.5916)"
       fill="#ffffff"
       stroke="none"
       id="g54"
       style="fill:#ffffff"><g
         id="g49"
         transform="matrix(1.6005714,0,0,1.6005714,-2170.8751,-3608.1788)"
         style="fill:#ffffff;opacity:0.2"><path
           d="m 4181.7068,7755.9158 c -154,-28 -272,-89 -370,-190 -90,-93 -130,-173 -138,-277 -3,-41 0,-91 6,-114 26,-97 179,-187 357,-209 l 51,-6 7,62 c 3,34 4,64 2,67 -3,2 -29,-1 -60,-8 -104,-21 -230,30 -263,107 -11,29 -12,45 -2,91 17,84 46,156 73,181 13,13 27,39 31,59 16,88 81,136 245,181 90,25 283,44 325,32 l 30,-9 -38,-16 c -21,-9 -96,-33 -165,-53 -70,-19 -138,-42 -152,-50 l -25,-14 30,6 c 89,15 274,35 328,35 73,0 203,-22 267,-45 99,-35 203,-125 241,-208 32,-72 21,-71 -53,6 -104,106 -175,139 -348,162 -297,40 -534,3 -650,-101 -105,-95 -108,-233 -7,-308 28,-21 157,-37 157,-20 0,5 -21,17 -48,26 -66,24 -103,65 -109,123 -6,45 -5,47 53,104 42,42 75,64 117,80 133,49 353,65 512,37 201,-35 314,-111 351,-232 16,-53 61,-129 98,-163 33,-31 57,-17 93,56 24,50 28,70 28,143 0,74 -4,93 -29,144 -76,155 -286,278 -547,321 -114,18 -297,18 -398,0 z"
           id="path9-1"
           style="fill:#ffffff" /><path
           d="m 5191.7068,7252.9158 -11,-128 44,-47 c 75,-78 94,-186 37,-216 -55,-30 -158,3 -212,67 -17,21 -55,89 -85,152 -91,190 -98,203 -121,218 -23,14 -23,14 -23,-35 0,-69 21,-142 61,-210 45,-76 199,-230 273,-274 120,-69 60,-76 -79,-9 -49,24 -106,63 -148,101 -58,52 -75,76 -117,163 -26,55 -57,139 -69,185 -23,96 -35,116 -57,87 -21,-29 -18,-196 4,-262 53,-153 208,-326 360,-401 62,-31 86,-37 155,-41 45,-2 100,1 123,7 58,16 118,62 150,118 24,40 29,61 32,138 5,108 -13,164 -88,279 -45,70 -193,236 -210,236 -4,0 -12,-58 -19,-128 z"
           id="path12-2"
           style="fill:#ffffff" /><path
           d="m 4181.7068,7281.9158 c -38,-5 -46,-10 -52,-34 -4,-16 -12,-198 -18,-405 -6,-207 -13,-434 -16,-503 l -6,-126 31,-7 c 17,-3 57,-3 89,0 l 58,7 6,495 c 4,408 8,497 19,509 12,11 24,12 63,3 27,-6 55,-16 62,-22 24,-20 11,-516 -22,-837 -8,-78 -12,-148 -9,-153 6,-10 195,-4 258,9 l 28,5 -5,477 c -3,262 -9,494 -14,516 -14,67 -43,75 -253,73 -96,0 -195,-4 -219,-7 z"
           id="path13-9"
           style="fill:#ffffff" /><path
           d="m 5552.7068,7249.9158 c -35,-11 -62,-24 -60,-28 2,-4 22,-46 46,-92 102,-199 91,-384 -30,-515 -62,-68 -133,-97 -243,-102 -50,-2 -116,1 -147,7 -89,19 -212,84 -278,147 l -59,56 -5,-34 c -15,-96 -28,-285 -23,-338 6,-69 26,-106 65,-121 22,-8 29,-7 42,10 37,50 143,47 241,-6 32,-17 54,-23 69,-18 28,9 100,57 168,111 30,25 75,49 107,58 113,33 321,281 444,530 43,85 111,274 111,306 0,49 -319,70 -448,29 z"
           id="path14-3"
           style="fill:#ffffff" /><path
           d="m 3895.7068,6881.9158 c -4,-7 -32,-23 -63,-37 -32,-14 -76,-44 -100,-67 -85,-83 -210,-305 -242,-431 -31,-123 -32,-120 20,-128 125,-21 120,-22 228,21 120,48 149,50 191,15 17,-14 31,-24 31,-22 0,1 10,44 22,93 17,75 22,130 25,323 3,217 3,232 -14,232 -10,0 -34,3 -54,6 -23,4 -39,2 -44,-5 z"
           id="path16-1"
           style="fill:#ffffff" /><path
           d="m 3420.7068,6504.9158 c -25,-25 -59,-54 -76,-64 -40,-25 -251,-276 -241,-287 2,-1 64,12 137,31 l 134,33 13,67 c 8,38 31,112 52,167 22,54 36,99 32,99 -4,0 -27,-21 -51,-46 z"
           id="path18-9"
           style="fill:#ffffff" /><path
           d="m 3815.7068,6171.9158 -30,-6 4,-260 c 2,-143 5,-262 7,-264 2,-2 24,-6 50,-9 l 47,-5 -6,183 c -4,101 -7,225 -7,277 0,102 2,99 -65,84 z"
           id="path19-4"
           style="fill:#ffffff" /><path
           d="m 4946.7068,6088.9158 c -3,-51 -7,-175 -8,-276 l -3,-182 h 37 c 68,0 68,2 68,280 0,137 -3,251 -7,253 -5,2 -24,7 -45,11 l -36,7 z"
           id="path20-7"
           style="fill:#ffffff" /><path
           d="m 3442.7068,6118.9158 c -13,-13 -18,-423 -4,-431 4,-3 26,-8 50,-12 l 42,-7 v 209 c 0,114 -3,218 -6,231 -5,17 -14,22 -38,22 -18,0 -37,-5 -44,-12 z"
           id="path21-8"
           style="fill:#ffffff" /><path
           d="m 3924.7068,6116.9158 c -3,-8 -4,-27 -2,-43 l 3,-28 125,-6 c 69,-4 286,-10 483,-13 l 357,-7 v 55 56 h -480 c -405,0 -481,-2 -486,-14 z"
           id="path22-4"
           style="fill:#ffffff" /><path
           d="m 5295.7068,5909.9158 c -4,-122 -3,-225 2,-229 4,-5 27,-6 51,-3 l 42,6 v 208 c 0,228 -3,239 -59,239 h -28 z"
           id="path23-5"
           style="fill:#ffffff" /><path
           d="m 3237.7068,6093.9158 c -17,-4 -18,-18 -15,-188 2,-101 6,-186 9,-190 4,-3 19,-7 35,-8 l 29,-2 -1,60 c -5,184 -17,335 -28,334 -6,-1 -19,-3 -29,-6 z"
           id="path24-0"
           style="fill:#ffffff" /><path
           d="m 5547.7068,6068.9158 c -4,-18 -9,-109 -13,-202 l -7,-169 24,6 c 13,4 30,7 37,7 9,0 12,45 12,189 0,163 -2,190 -16,195 -27,10 -32,7 -37,-26 z"
           id="path25-3"
           style="fill:#ffffff" /><path
           d="m 3130.7068,6041.9158 c -25,-7 -25,-8 -28,-128 l -3,-121 46,-18 c 25,-9 47,-15 49,-13 9,10 -18,289 -28,288 -6,-1 -22,-4 -36,-8 z"
           id="path26-6"
           style="fill:#ffffff" /><path
           d="m 5647.7068,6013.9158 c -13,-86 -20,-253 -10,-253 6,0 27,7 47,15 l 36,15 v 125 c 0,93 -3,125 -12,125 -7,0 -22,3 -34,6 -18,5 -22,0 -27,-33 z"
           id="path27-1"
           style="fill:#ffffff" /><path
           d="m 2976.7068,5945.9158 c -11,-27 -26,-66 -33,-85 -8,-19 -16,-58 -18,-85 -3,-28 -14,-90 -25,-139 -12,-49 -18,-96 -15,-105 4,-9 13,-79 20,-156 8,-77 21,-160 29,-185 53,-162 100,-256 170,-344 23,-28 49,-62 57,-76 32,-49 239,-171 329,-193 36,-9 111,-19 168,-23 91,-5 111,-3 172,17 39,12 83,34 100,48 l 29,26 7,156 6,156 -43,7 c -53,8 -112,41 -244,134 -86,60 -107,82 -151,149 -66,99 -88,145 -129,257 l -33,91 -62,7 c -121,14 -218,61 -266,129 -25,37 -30,56 -39,153 l -10,111 z"
           id="path28-0"
           style="fill:#ffffff" /><path
           d="m 3925.7068,5807.9158 c 8,-97 11,-104 38,-110 60,-15 403,-28 647,-25 l 275,3 7,95 c 4,52 4,97 0,101 -4,4 -225,9 -491,12 l -483,4 z"
           id="path29-6"
           style="fill:#ffffff" /><path
           d="m 3556.7068,5808.9158 c 3,-40 10,-77 14,-81 4,-4 36,-15 71,-23 35,-8 74,-16 87,-19 23,-6 23,-5 20,92 l -3,98 -98,3 -98,3 z"
           id="path30-3"
           style="fill:#ffffff" /><path
           d="m 5076.7068,5828.9158 c -7,-65 -8,-133 -1,-140 6,-5 172,26 180,34 3,2 8,39 13,81 l 8,77 h -97 -96 z"
           id="path31-2"
           style="fill:#ffffff" /><path
           d="m 2813.7068,5691.9158 c -7,-11 -26,-75 -43,-143 -17,-68 -44,-163 -60,-213 -45,-140 -79,-350 -80,-487 0,-64 6,-95 38,-185 38,-108 76,-175 153,-268 97,-118 168,-189 229,-227 36,-23 79,-57 97,-76 24,-26 35,-32 45,-24 14,11 81,-2 185,-34 100,-32 279,-6 394,56 20,11 43,20 51,20 7,0 36,22 63,50 l 49,50 8,161 c 5,89 7,164 4,166 -3,3 -24,-2 -46,-11 -69,-27 -178,-41 -316,-40 -110,2 -139,5 -179,23 -72,32 -208,148 -341,292 -164,178 -240,418 -235,747 2,89 1,162 -1,162 -2,0 -9,-9 -15,-19 z"
           id="path32-0"
           style="fill:#ffffff" /><path
           d="m 4116.7068,5609.9158 c -9,-24 -100,-1534 -126,-2069 -5,-118 -14,-314 -20,-435 -34,-705 -85,-838 -325,-852 -46,-3 -121,2 -178,11 -86,13 -117,24 -230,80 -161,80 -265,157 -443,329 -113,109 -133,132 -118,138 11,4 64,22 119,39 145,46 205,82 285,167 67,72 113,155 94,172 -5,4 -53,13 -106,19 -168,20 -433,119 -633,236 -125,74 -160,100 -258,195 -96,93 -155,178 -237,340 -35,71 -65,120 -70,115 -13,-13 -69,-297 -86,-433 -18,-149 -18,-441 0,-546 38,-215 134,-538 187,-631 40,-70 111,-166 168,-227 48,-52 129,-113 137,-104 3,3 0,41 -6,85 -12,78 -2,223 15,240 10,10 100,-90 216,-240 234,-303 575,-581 926,-756 43,-22 184,-76 313,-121 129,-46 280,-104 336,-131 103,-48 252,-139 275,-165.9999 7,-8 21,-19 30,-25 17,-8 18,-6 12,23 -20,109.9999 -93,237.9999 -181,319.9999 -106,99 -333,224 -587,322 -160,62 -246,104 -390,189 -185,108 -281,176 -385,271 -103,94 -384,385 -543,563 -55,62 -104,110 -108,107 -5,-3 -9,-22 -9,-43 0,-52 -18,-143 -31,-156 -35,-34 -99,169 -199,635 -53,247 -78,451 -65,536 l 7,49 48,-145 c 134,-409 298,-711 574,-1054 153,-190 398,-427 526,-508 92,-59 211,-124 286,-156 81,-36 603,-197 611,-189 3,3 -7,21 -21,40 -60,79 -125,273 -110,332 10,41 86,75 123,56 9,-6 57,-60 106,-120 48,-61 89,-111 90,-111 7,0 26,109 39,228 34,296 61,870 76,1592 11,570 18,1776 10,1784 -3,3 -36,8 -73,12 -52,5 -68,4 -71,-7 z"
           id="path33-6"
           style="fill:#ffffff" /><path
           d="m 4487.7068,5603.9158 -79,-4 6,-352 c 4,-194 11,-786 16,-1317 5,-531 13,-1182 16,-1447 l 7,-483 44,-41 c 58,-53 132,-86 235,-104 45,-8 85,-15 88,-15 3,1 -26,16 -65,34 -38,18 -94,54 -122,80 -64,58 -69,89 -22,159 30,46 104,103 147,114 16,4 57,-12 135,-50 128,-64 198,-85 313,-94 169,-12 365,52 579,191 153,100 363,283 503,438 198,220 401,594 586,1078 l 25,65 v -45 c 2,-90 -78,-364 -161,-553 -121,-278 -374,-657 -587,-881 -91,-95 -235,-218 -339,-287 -321,-215 -858,-402 -1113,-387 -93,6 -153,37 -207,108 l -35,45 5,-405 c 3,-223 9,-412.9999 13,-421.9999 6,-16 14,-12 55,26 151,134.9999 368,252.9999 620,335.9999 216,71 377,147 548,259 262,172 468,342 589,486 83,98 198,265 262,378 18,31 36,57 41,57 18,0 41,-101 51,-220 5,-68 12,-126 14,-128 2,-2 28,33 58,79 282,440 415,884 378,1267 -15,158 -58,325 -110,438 -23,48 -43,85 -45,83 -2,-2 -34,-53 -71,-114 -79,-128 -180,-272 -259,-367 -151,-183 -385,-303 -741,-383 -66,-15 -121,-28 -123,-30 -9,-9 38,-77 87,-125 89,-87 237,-153 400,-179 35,-6 65,-12 67,-14 7,-7 -106,-134 -167,-188 -180,-157 -399,-311 -529,-372 -79,-38 -93,-41 -190,-45 -126,-5 -205,8 -285,47 -123,60 -160,111 -190,253 -29,136 -61,500 -79,903 -14,306 -29,539 -46,755 -17,200 -39,503 -90,1224 -5,76 -12,141 -15,145 -8,7 -116,9 -218,4 z"
           id="path34-1"
           style="fill:#ffffff" /><path
           d="m 3533.7068,5587.9158 c -35,-6 -63,-15 -63,-22 0,-13 23,-48 61,-92 17,-20 32,-54 39,-90 7,-32 17,-67 22,-78 17,-33 124,-128 173,-154 26,-13 58,-41 73,-62 26,-37 29,-38 84,-36 l 56,2 6,90 c 3,50 11,156 16,237 14,206 15,195 -11,172 -17,-16 -36,-19 -105,-18 -73,0 -90,4 -144,32 -65,35 -94,37 -207,19 z"
           id="path35-5"
           style="fill:#ffffff" /><path
           d="m 4820.7068,5486.9158 c 0,-53 2,-58 32,-76 43,-26 137,-64 144,-58 3,3 -8,32 -24,64 -17,33 -33,69 -36,80 -5,15 -17,23 -44,27 -20,3 -45,8 -54,12 -16,6 -18,0 -18,-49 z"
           id="path36-5"
           style="fill:#ffffff" /><path
           d="m 4985.7068,5209.9158 c -27,-10 -72,-35 -99,-55 l -48,-36 6,-111 c 13,-198 35,-470 40,-475 3,-2 17,-1 32,2 23,6 25,10 17,34 -4,15 -8,77 -8,137 0,102 2,114 29,162 86,156 274,283 418,283 27,0 38,4 36,13 -7,21 -50,35 -157,51 -136,21 -205,19 -266,-5 z"
           id="path37-4"
           style="fill:#ffffff" /><path
           d="m 5351.7068,5118.9158 c -78,-11 -142,-41 -237,-113 -120,-90 -169,-191 -162,-331 4,-81 20,-112 78,-151 51,-35 57,-31 62,47 7,92 52,186 123,256 57,55 125,91 236,125 64,19 85,21 193,15 l 121,-6 -25,20 c -51,42 -156,107 -195,122 -57,22 -120,27 -194,16 z"
           id="path38-7"
           style="fill:#ffffff" /><path
           d="m 5475.7068,4922.9158 c -82,-11 -181,-66 -254,-141 -35,-36 -72,-84 -82,-106 -22,-48 -24,-126 -5,-163 15,-28 64,-78 69,-71 2,2 15,24 30,50 39,68 96,121 178,167 97,53 164,71 279,74 l 95,3 109,-52 c 60,-29 115,-53 122,-53 17,0 19,26 3,36 -6,3 -31,37 -55,74 -55,86 -87,117 -155,155 -50,28 -62,30 -169,31 -63,1 -138,-1 -165,-4 z"
           id="path39-6"
           style="fill:#ffffff" /><path
           d="m 5481.7068,4648.9158 c -138,-62 -231,-152 -231,-224 0,-33 37,-114 52,-114 6,0 32,15 58,34 93,67 123,77 244,83 155,8 185,-2 235,-75 57,-84 96,-116 192,-160 47,-22 104,-51 127,-66 l 42,-26 v 22 c -1,51 -30,184 -61,275 -40,120 -69,153 -199,223 -108,58 -156,70 -279,70 -79,-1 -94,-4 -180,-42 z"
           id="path40-5"
           style="fill:#ffffff" /><path
           d="m 2603.7068,4478.9158 c 2,-68 11,-175 20,-238 9,-63 19,-140 22,-171 9,-103 65,-229 137,-306 73,-77 237,-207 295,-233 131,-59 192,-72 351,-77 218,-8 354,22 444,99 l 28,23 14,265 c 9,145 13,266 11,268 -2,3 -27,-16 -55,-41 -98,-89 -231,-131 -410,-131 -96,0 -113,3 -200,36 -131,49 -193,80 -256,129 -54,42 -196,192 -226,239 -8,14 -36,49 -61,78 -25,30 -59,82 -77,118 -17,35 -33,64 -36,64 -3,0 -3,-55 -1,-122 z"
           id="path41-6"
           style="fill:#ffffff" /><path
           d="m 4978.7068,4431.9158 c -82,-52 -87,-61 -81,-133 3,-34 7,-65 9,-67 2,-2 24,15 49,38 76,70 130,85 200,55 76,-31 81,10 9,76 -75,69 -116,75 -186,31 z"
           id="path42-9"
           style="fill:#ffffff" /><path
           d="m 5557.7068,4379.9158 c -78,-9 -143,-37 -194,-85 -34,-33 -36,-36 -30,-85 9,-73 20,-83 87,-75 30,4 76,10 101,13 31,3 64,-1 98,-12 43,-14 59,-27 93,-73 23,-32 63,-77 89,-102 25,-25 59,-67 74,-95 61,-110 109,-172 158,-206 82,-55 105,-78 112,-110 4,-17 11,-27 16,-22 15,15 38,176 45,323 9,201 4,210 -203,313 -71,36 -101,58 -135,99 -24,28 -59,69 -79,90 -35,37 -39,38 -100,37 -35,-1 -94,-5 -132,-10 z"
           id="path43-3"
           style="fill:#ffffff" /><path
           d="m 5064.7068,4290.9158 c -53,-27 -122,-96 -108,-110 7,-7 26,-4 59,11 59,26 107,22 170,-16 25,-14 60,-45 77,-68 l 31,-42 -6,58 c -7,73 -41,135 -87,158 -59,29 -91,31 -136,9 z"
           id="path44-7"
           style="fill:#ffffff" /><path
           d="m 5017.7068,4156.9158 c -45,-16 -67,-34 -67,-52 0,-11 7,-12 28,-7 56,16 127,8 175,-20 48,-28 87,-80 87,-115 0,-11 4,-23 9,-26 9,-6 31,36 31,59 0,20 -70,147 -89,162 -21,16 -126,16 -174,-1 z"
           id="path45-4"
           style="fill:#ffffff" /><path
           d="m 5420.7068,4090.9158 c -50,-12 -80,-51 -80,-105 0,-54 23,-74 118,-106 37,-12 89,-33 116,-46 60,-30 149,-112 170,-158 9,-18 23,-93 31,-165 9,-73 22,-148 30,-167 14,-33 17,-35 49,-29 19,4 85,22 145,42 l 111,35 v 64 c 0,35 -4,75 -9,88 -6,14 -42,47 -82,74 -42,28 -80,63 -93,85 -76,132 -109,178 -189,268 -79,87 -97,102 -141,115 -53,16 -120,18 -176,5 z"
           id="path46-5"
           style="fill:#ffffff" /><path
           d="m 5065.7068,4069.9158 c -16,-3 -49,-7 -72,-8 -87,-2 -97,-27 -24,-58 73,-30 85,-60 83,-201 l -1,-114 32,21 c 18,11 54,48 81,82 47,61 48,64 44,120 -7,99 -75,174 -143,158 z"
           id="path47-2"
           style="fill:#ffffff" /><path
           d="m 4923.7068,3958.9158 c 4,-18 9,-97 13,-176 4,-78 11,-145 15,-148 5,-2 20,13 35,36 22,33 28,56 34,132 8,107 -1,135 -53,167 -46,28 -50,27 -44,-11 z"
           id="path48-5"
           style="fill:#ffffff" /><path
           d="m 5355.7068,3861.9158 c -6,-5 -25,-11 -44,-13 -29,-2 -45,-15 -97,-78 -35,-41 -63,-80 -63,-87 -1,-12 32,-23 109,-38 52,-10 74,-28 134,-109 106,-143 141,-247 140,-411 0,-98 -4,-120 -33,-205 -42,-118 -81,-197 -138,-277 -47,-67 -47,-75 -5,-44 15,10 38,22 52,26 46,14 135,63 193,107 56,42 197,201 197,223 0,6 -23,33 -51,60 -87,85 -112,162 -75,233 13,25 25,33 57,38 32,5 39,10 34,23 -18,43 -26,85 -36,191 -5,63 -14,131 -20,151 -12,47 -71,101 -147,135 -31,15 -85,39 -120,55 -69,32 -74,33 -87,20 z"
           id="path49"
           style="fill:#ffffff" /><path
           d="m 2770.7068,3631.9158 c 28,-90 46,-127 102,-217 51,-81 54,-84 98,-89 124,-17 206,-37 246,-60 43,-26 44,-27 44,-80 0,-30 -9,-77 -19,-105 l -19,-50 82,-26 c 195,-62 547,-56 561,10 6,33 28,451 24,463 -4,11 -117,-32 -239,-91 -30,-14 -71,-26 -90,-25 -65,0 -225,26 -320,52 -169,45 -244,80 -325,149 -81,68 -131,109 -151,120 -8,5 -6,-11 6,-51 z"
           id="path50"
           style="fill:#ffffff" /><path
           d="m 5030.7068,3604.9158 c -36,-15 -69,-30 -74,-35 -5,-5 7,-24 30,-46 54,-53 134,-175 150,-231 9,-28 14,-94 14,-180 v -135 l -41,-96 c -22,-53 -54,-118 -71,-145 -34,-56 -34,-75 1,-166 35,-90 31,-88 102,-55 156,74 257,211 324,441 25,82 26,98 20,204 -10,170 -57,276 -165,373 -49,45 -133,84 -195,93 -18,3 -56,-6 -95,-22 z"
           id="path51"
           style="fill:#ffffff" /><path
           d="m 4954.7068,3413.9158 c 8,-88 25,-362 32,-515 3,-76 9,-138 14,-138 17,0 71,123 86,195 23,110 16,279 -15,358 -23,58 -93,157 -112,157 -6,0 -8,-21 -5,-57 z"
           id="path52"
           style="fill:#ffffff" /><path
           d="m 4327.7068,3165.9158 c -4,-115 -10,-268 -14,-339 l -6,-128 22,11 c 20,11 21,18 20,144 -1,73 -4,220 -8,327 l -6,195 z"
           id="path53"
           style="fill:#ffffff" /><path
           d="m 3280.7068,2890.9158 c 47,-43 101,-87 120,-96 19,-9 50,-30 68,-45 18,-16 56,-41 84,-55 28,-14 62,-37 76,-51 20,-20 41,-27 101,-35 42,-5 83,-10 91,-11 12,-2 17,27 27,163 7,90 11,165 9,167 -1,1 -40,-5 -87,-13 -122,-24 -271,-15 -422,25 -65,17 -126,31 -135,31 -10,0 16,-32 68,-80 z"
           id="path54"
           style="fill:#ffffff" /></g></g></g><g
     id="g50"
     inkscape:label="First Seal"
     style="display:inline;fill:#ffffff"
     transform="matrix(0.1,0,0,-0.1,0,1350)"><path
       d="m 6576,13453 c -57,-3 -96,-9 -110,-18 -11,-8 -40,-15 -63,-15 -24,0 -43,-4 -43,-9 0,-4 -20,-11 -44,-13 -24,-3 -57,-15 -74,-26 -16,-12 -51,-27 -77,-34 -26,-7 -58,-23 -72,-35 -13,-13 -31,-23 -39,-23 -14,0 -105,-60 -132,-87 -7,-7 -17,-13 -22,-13 -15,0 -264,-252 -310,-314 -25,-32 -60,-69 -80,-82 -62,-40 -166,-144 -153,-152 19,-12 102,-6 130,9 19,10 31,10 56,1 25,-10 35,-9 54,3 12,8 36,15 52,15 16,0 31,6 33,12 3,8 26,13 61,13 47,1 62,6 84,27 16,14 46,29 67,33 22,3 49,13 60,21 11,8 30,14 41,14 12,0 32,11 45,25 13,14 29,25 36,25 16,0 94,51 94,62 0,4 9,8 19,8 10,0 36,16 58,35 67,62 82,73 103,80 11,4 48,33 81,66 33,32 66,59 73,59 8,0 25,12 38,28 26,31 92,82 105,82 5,0 39,20 77,45 37,24 76,47 87,50 10,4 19,10 19,15 0,5 13,11 30,15 16,4 32,11 35,16 4,5 19,9 35,9 34,0 48,17 29,35 -15,14 -225,24 -383,18 z"
       id="path1"
       style="fill:#ffffff" /><path
       d="m 7365,13410 c -3,-5 -41,-10 -84,-10 -60,0 -82,-4 -92,-16 -9,-11 -23,-14 -46,-11 -18,3 -35,1 -38,-4 -4,-5 -19,-9 -35,-9 -16,0 -43,-8 -62,-17 -18,-9 -45,-22 -60,-30 -14,-7 -33,-13 -42,-13 -17,0 -90,-43 -100,-59 -3,-5 -27,-19 -53,-32 -25,-12 -75,-49 -111,-81 -35,-32 -73,-58 -83,-58 -11,0 -23,-10 -28,-24 -5,-13 -29,-35 -54,-49 -24,-14 -52,-38 -61,-52 -9,-14 -23,-25 -32,-25 -9,0 -34,-19 -56,-41 -23,-23 -57,-48 -77,-56 -41,-17 -93,-62 -85,-75 10,-15 202,-9 235,7 21,12 34,13 48,5 30,-16 99,-12 128,7 18,12 49,18 99,19 53,1 79,6 100,21 38,26 100,50 146,58 20,3 50,12 65,20 15,8 33,15 39,15 7,0 14,6 17,13 3,7 34,27 70,45 36,17 106,56 156,87 51,30 94,55 97,55 4,0 23,13 43,29 20,15 47,32 61,36 14,4 34,14 45,21 11,8 26,14 35,14 8,0 20,8 27,19 6,10 33,24 58,30 26,7 54,18 62,26 8,8 26,15 41,15 39,0 114,39 110,58 -4,21 -54,33 -104,26 -30,-4 -44,-2 -53,10 -10,12 -33,16 -102,16 -48,0 -91,5 -94,10 -3,6 -33,10 -65,10 -32,0 -62,-4 -65,-10 z"
       id="path2"
       style="fill:#ffffff" /><path
       d="m 5777,13391 c -11,-8 -49,-15 -89,-16 -45,-2 -74,-7 -86,-18 -9,-8 -30,-19 -47,-23 -16,-4 -34,-10 -40,-14 -5,-4 -29,-10 -53,-14 -24,-3 -61,-18 -82,-31 -22,-14 -43,-25 -48,-25 -5,0 -22,-12 -38,-26 -16,-14 -41,-30 -56,-36 -16,-5 -28,-14 -28,-18 0,-5 -16,-18 -36,-31 -37,-23 -194,-177 -194,-191 0,-4 -16,-23 -35,-42 -19,-20 -35,-41 -35,-49 0,-7 -13,-26 -29,-43 -15,-16 -36,-44 -46,-63 -20,-39 -25,-46 -82,-110 -24,-27 -43,-52 -43,-56 0,-4 -16,-25 -35,-46 -19,-22 -35,-44 -35,-49 0,-21 -56,-78 -87,-91 -28,-10 -30,-39 -4,-39 11,0 22,4 25,9 4,5 24,12 46,16 22,4 42,11 46,16 3,5 15,9 28,9 12,0 27,5 34,12 6,6 53,22 104,35 50,13 105,34 122,47 17,12 69,39 114,59 82,35 124,65 200,138 21,20 47,39 59,43 28,9 238,219 270,270 30,47 158,176 175,176 6,0 36,24 67,53 31,30 91,73 134,96 42,24 77,47 77,51 0,5 -57,10 -126,12 -97,2 -132,0 -147,-11 z"
       id="path3"
       style="fill:#ffffff" /><path
       d="m 5154,13263 c -13,-13 -34,-18 -75,-19 -32,0 -63,-5 -71,-11 -7,-6 -42,-13 -77,-17 -44,-4 -89,-18 -145,-45 -44,-21 -92,-42 -106,-46 -14,-4 -29,-11 -35,-15 -5,-4 -24,-11 -42,-14 -17,-4 -39,-18 -47,-31 -9,-13 -26,-30 -40,-37 -13,-7 -42,-23 -65,-36 -23,-13 -46,-33 -51,-46 -5,-13 -20,-26 -34,-30 -14,-3 -26,-12 -26,-20 0,-7 -24,-36 -54,-63 -30,-28 -57,-61 -61,-74 -4,-13 -19,-39 -34,-58 -64,-82 -82,-109 -105,-158 -14,-29 -30,-53 -36,-53 -5,0 -10,-12 -10,-26 0,-23 -12,-53 -41,-104 -5,-8 -12,-22 -16,-30 -3,-8 -30,-52 -60,-97 -29,-44 -53,-86 -53,-92 0,-6 -16,-28 -35,-50 -35,-39 -46,-71 -22,-71 6,0 30,12 52,25 22,14 48,25 57,25 9,0 30,11 46,25 17,14 34,25 40,25 6,0 23,6 39,14 15,8 49,24 75,36 26,12 53,29 60,39 7,10 36,28 63,42 63,30 305,272 390,389 33,46 62,88 64,94 2,6 14,22 27,36 35,37 114,146 114,158 0,6 15,23 33,39 18,15 39,41 47,57 20,39 117,136 135,136 9,0 36,20 61,44 25,25 53,46 62,48 8,2 15,7 15,13 -2,17 -20,16 -39,-2 z"
       id="path4"
       style="fill:#ffffff" /><path
       d="m 7955,13260 c -3,-6 -18,-10 -33,-10 -15,0 -39,-6 -53,-14 -14,-7 -42,-16 -62,-20 -20,-4 -49,-13 -64,-21 -15,-8 -36,-15 -45,-15 -10,0 -40,-13 -66,-30 -27,-16 -53,-30 -57,-30 -4,0 -29,-16 -55,-35 -26,-19 -52,-35 -58,-35 -5,0 -33,-16 -61,-35 -28,-19 -57,-35 -65,-35 -8,0 -25,-13 -39,-30 -14,-16 -37,-32 -52,-36 -39,-10 -142,-61 -146,-73 -2,-5 -28,-18 -58,-28 -57,-20 -66,-29 -52,-51 6,-10 71,-15 287,-19 238,-4 282,-3 299,10 14,11 25,12 42,4 23,-10 57,-4 138,25 17,6 47,12 69,14 21,2 46,9 55,17 9,8 32,17 52,21 21,4 42,13 48,20 7,8 42,22 79,32 37,9 72,23 78,31 6,7 36,20 65,29 30,9 75,29 100,45 25,16 57,29 70,29 13,1 35,7 49,15 14,8 37,14 51,15 15,0 32,7 39,15 9,11 22,14 46,9 25,-5 35,-2 40,9 4,13 23,16 89,16 92,-1 143,14 90,26 -17,3 -37,10 -45,16 -8,5 -26,14 -39,19 -13,6 -36,19 -50,29 -17,13 -54,22 -101,26 -41,4 -82,14 -91,22 -9,7 -30,12 -47,11 -16,-1 -36,3 -44,9 -17,14 -394,17 -403,3 z"
       id="path5"
       style="fill:#ffffff" /><path
       d="m 8830,13028 c -30,-5 -82,-12 -115,-17 -177,-26 -221,-35 -235,-46 -20,-16 -78,-41 -113,-49 -16,-4 -46,-18 -68,-32 -22,-13 -54,-27 -72,-31 -18,-3 -46,-16 -62,-28 -17,-12 -50,-26 -73,-30 -24,-4 -56,-13 -70,-21 -15,-8 -33,-14 -39,-14 -7,0 -13,-4 -13,-9 0,-5 -12,-11 -27,-14 -29,-5 -115,-35 -122,-43 -11,-11 25,-34 53,-34 18,0 36,-4 42,-10 5,-5 45,-14 88,-20 46,-6 83,-16 90,-24 6,-8 38,-17 71,-21 81,-9 332,-10 375,-1 19,4 67,8 107,9 42,1 77,7 84,15 7,6 21,12 32,12 10,0 28,6 40,12 12,7 54,18 92,24 89,15 156,32 170,44 6,5 28,9 48,8 19,-1 47,6 61,16 15,9 57,19 103,23 43,3 101,14 128,23 31,10 60,14 75,9 37,-11 158,-10 165,1 6,10 -35,34 -80,44 -16,4 -35,16 -42,26 -7,10 -46,31 -85,46 -40,15 -77,31 -82,36 -6,4 -20,8 -32,8 -13,0 -29,6 -36,14 -8,7 -29,16 -48,19 -19,3 -57,11 -85,17 -27,7 -77,14 -110,17 -33,3 -68,11 -79,19 -22,15 -52,16 -136,2 z"
       id="path6"
       style="fill:#ffffff" /><path
       d="m 4211,12960 c -13,-11 -33,-20 -45,-20 -11,0 -30,-7 -40,-15 -11,-8 -30,-15 -42,-15 -11,0 -38,-11 -58,-25 -20,-14 -48,-25 -61,-25 -14,0 -34,-9 -45,-20 -11,-11 -28,-20 -39,-20 -23,0 -86,-42 -129,-86 -18,-19 -36,-34 -40,-34 -4,0 -21,-13 -38,-28 -17,-15 -50,-43 -73,-62 -22,-19 -41,-41 -41,-49 0,-8 -19,-35 -42,-62 -62,-69 -68,-77 -68,-93 0,-8 -7,-21 -15,-29 -8,-8 -24,-34 -35,-58 -12,-24 -26,-52 -31,-61 -5,-10 -9,-26 -9,-37 0,-10 -7,-24 -15,-31 -8,-7 -20,-31 -25,-54 -11,-42 -22,-71 -45,-116 -7,-14 -16,-41 -20,-60 -13,-64 -37,-131 -60,-164 -12,-18 -22,-45 -22,-60 0,-15 -8,-35 -17,-45 -9,-9 -16,-27 -16,-38 0,-12 -11,-31 -24,-44 -14,-13 -22,-27 -20,-31 4,-7 143,59 154,73 3,4 24,17 47,29 24,12 57,40 74,61 17,21 36,39 43,39 19,0 111,77 127,106 7,14 34,41 60,60 28,21 55,51 67,78 12,24 35,56 52,72 17,16 50,65 72,109 22,44 44,82 49,83 5,2 9,8 9,14 0,6 23,47 50,93 28,46 50,88 50,94 0,6 11,29 25,51 14,22 25,47 25,55 0,9 16,32 35,52 19,20 35,43 35,51 0,14 34,64 63,94 7,7 26,35 42,62 16,27 48,63 72,79 24,17 43,34 43,39 0,16 -55,7 -79,-12 z"
       id="path7"
       style="fill:#ffffff" /><path
       d="m 9466,12693 c -16,-16 -73,-28 -103,-22 -20,4 -42,1 -59,-7 -14,-8 -41,-14 -59,-14 -18,0 -38,-7 -45,-15 -7,-8 -26,-15 -42,-15 -16,0 -41,-6 -56,-14 -15,-7 -52,-17 -82,-21 -30,-4 -65,-14 -77,-22 -13,-9 -32,-13 -43,-10 -10,3 -24,-1 -31,-9 -7,-8 -30,-14 -56,-14 -24,0 -54,-6 -66,-12 -12,-7 -52,-15 -90,-18 -64,-5 -94,-21 -51,-28 10,-2 33,-10 51,-18 17,-8 38,-14 46,-14 9,0 28,-11 44,-24 16,-13 49,-26 76,-30 26,-4 47,-11 47,-15 0,-5 23,-12 52,-15 28,-4 60,-14 72,-22 11,-8 35,-14 52,-14 17,0 44,-6 59,-14 16,-9 41,-12 61,-9 22,4 42,0 59,-11 21,-14 29,-15 41,-5 11,9 21,9 40,0 29,-13 210,-15 218,-2 8,12 101,25 159,22 26,-2 53,1 60,7 7,5 53,12 104,15 50,3 101,10 112,16 12,7 91,11 199,11 140,0 188,-3 217,-16 28,-11 41,-12 49,-4 8,8 4,16 -14,30 -14,11 -32,20 -41,20 -8,0 -26,12 -40,26 -13,14 -33,30 -44,35 -29,13 -86,48 -114,70 -13,10 -28,19 -34,19 -6,0 -23,12 -38,26 -15,15 -45,30 -66,35 -74,16 -128,32 -155,45 -14,8 -34,14 -45,14 -10,0 -26,7 -36,14 -11,9 -33,12 -61,9 -29,-4 -55,0 -77,11 -33,16 -178,23 -193,9 z"
       id="path8"
       style="fill:#ffffff" /><path
       d="m 3370,12559 c -25,-16 -63,-39 -85,-51 -22,-11 -42,-24 -45,-29 -3,-4 -29,-19 -57,-34 -29,-14 -55,-30 -58,-36 -4,-5 -25,-22 -48,-36 -89,-56 -212,-191 -272,-298 -76,-134 -115,-206 -115,-211 0,-3 -6,-12 -14,-19 -7,-8 -16,-37 -20,-66 -4,-29 -16,-65 -27,-80 -12,-17 -15,-30 -9,-34 15,-9 12,-47 -5,-69 -8,-11 -15,-34 -15,-52 0,-18 -4,-36 -10,-39 -5,-3 -10,-25 -10,-49 0,-23 -6,-51 -14,-61 -10,-14 -11,-23 -3,-37 9,-14 8,-24 -6,-47 -9,-16 -17,-43 -17,-59 0,-16 -7,-43 -15,-58 -8,-16 -15,-38 -15,-50 0,-11 -3,-24 -7,-28 -12,-12 -31,-76 -22,-76 22,0 77,37 94,65 11,16 36,38 55,47 39,19 140,121 185,187 16,24 38,49 47,55 10,6 18,15 18,20 0,14 70,117 102,150 15,17 28,35 28,41 0,5 8,26 19,45 10,19 22,46 26,60 4,14 22,57 40,95 18,39 36,85 40,102 3,18 11,35 16,38 5,4 9,14 9,23 0,10 9,34 20,55 11,21 27,63 35,94 8,30 19,60 24,67 5,6 12,30 16,53 4,24 11,45 15,48 5,3 19,27 31,53 13,26 40,70 60,97 20,28 48,71 63,96 23,41 24,47 10,53 -8,3 -16,6 -17,6 -1,0 -22,-14 -47,-31 z"
       id="path9"
       style="fill:#ffffff" /><path
       d="m 9974,12245 c -12,-9 -43,-14 -86,-15 -37,0 -79,-5 -95,-12 -34,-14 -197,-27 -350,-27 -62,0 -113,-2 -113,-5 0,-2 28,-18 63,-36 34,-18 69,-39 78,-46 8,-8 25,-14 36,-14 11,0 26,-7 33,-15 7,-8 17,-15 22,-15 19,0 158,-69 158,-78 0,-6 16,-13 35,-16 19,-4 47,-13 62,-21 15,-8 38,-15 51,-15 12,0 22,-4 22,-10 0,-5 15,-10 34,-10 18,0 39,-6 45,-14 7,-8 44,-16 93,-20 45,-4 88,-12 96,-19 10,-8 115,-12 369,-14 195,-2 363,-7 372,-13 10,-5 42,-12 72,-15 50,-6 87,-18 146,-47 13,-6 25,-9 28,-6 17,17 -63,128 -91,128 -8,0 -29,16 -47,36 -33,37 -141,114 -159,114 -6,0 -28,16 -49,35 -22,19 -45,35 -53,35 -17,0 -130,60 -134,71 -2,5 -20,9 -40,9 -20,0 -57,9 -81,20 -24,11 -60,20 -80,20 -20,0 -45,7 -55,15 -16,12 -56,15 -191,15 -135,0 -175,-3 -191,-15 z"
       id="path10"
       style="fill:#ffffff" /><path
       d="m 2615,12046 c -28,-19 -66,-44 -87,-55 -20,-11 -53,-43 -75,-70 -21,-28 -46,-50 -55,-51 -9,0 -29,-12 -42,-27 -133,-145 -206,-245 -206,-281 0,-12 -3,-22 -8,-22 -22,0 -105,-198 -110,-262 -2,-32 -11,-63 -18,-69 -9,-7 -14,-31 -14,-63 0,-29 -4,-56 -9,-61 -6,-6 -12,-66 -15,-135 -3,-69 -10,-181 -15,-250 -18,-216 -20,-260 -15,-260 3,0 20,15 37,33 18,17 53,51 79,73 26,23 50,53 53,66 4,14 17,30 30,36 14,6 26,23 30,42 4,19 16,36 30,42 13,6 26,22 30,37 3,14 31,69 61,122 30,52 54,102 54,111 0,9 6,21 14,27 7,6 16,32 19,57 2,24 12,53 21,63 9,10 16,26 16,37 0,11 4,24 9,29 5,6 12,33 15,60 10,94 19,130 39,159 16,22 18,32 9,46 -8,13 -8,20 0,28 6,6 11,34 10,61 0,32 4,54 14,61 8,7 14,29 14,49 0,20 7,45 15,55 8,11 15,30 15,42 0,12 7,27 15,34 8,7 15,20 15,30 0,10 6,23 14,29 7,6 16,33 18,60 3,27 12,57 21,66 10,9 17,22 17,29 0,8 7,19 15,26 8,7 15,16 15,21 0,17 -26,9 -75,-25 z"
       id="path11"
       style="fill:#ffffff" /><path
       d="m 10084,11769 c -6,-11 60,-67 99,-83 20,-8 37,-22 37,-30 0,-8 12,-18 28,-24 15,-5 38,-21 52,-34 14,-14 41,-33 60,-43 19,-9 49,-28 67,-41 17,-13 38,-24 46,-24 8,0 26,-9 40,-20 14,-11 32,-20 40,-20 8,0 20,-7 27,-15 7,-8 28,-17 49,-21 20,-3 48,-14 62,-24 14,-10 48,-22 74,-26 26,-3 60,-13 74,-20 14,-8 40,-14 58,-14 17,0 35,-5 39,-11 4,-7 21,-9 46,-5 30,5 46,2 68,-14 31,-22 71,-26 102,-9 17,9 30,7 64,-11 34,-16 53,-20 86,-15 30,5 52,2 73,-9 17,-9 49,-16 72,-16 23,0 44,-4 47,-9 3,-4 26,-11 50,-13 25,-3 52,-13 61,-22 9,-9 22,-16 29,-16 8,0 48,-14 90,-31 43,-17 80,-29 83,-26 11,11 -8,43 -34,58 -16,8 -35,28 -43,44 -20,39 -249,268 -282,282 -14,7 -29,21 -33,32 -3,12 -14,21 -24,21 -10,0 -29,8 -42,19 -13,10 -42,24 -64,31 -41,13 -106,48 -116,62 -3,5 -23,11 -45,15 -21,3 -44,10 -50,15 -7,5 -25,9 -40,9 -79,0 -151,13 -177,31 -27,19 -42,20 -325,17 -163,-1 -304,1 -312,4 -21,8 -131,13 -136,6 z"
       id="path12"
       style="fill:#ffffff" /><path
       d="m 1960,11450 c -13,-16 -34,-31 -46,-34 -33,-9 -143,-114 -151,-144 -3,-14 -21,-38 -38,-54 -37,-32 -90,-119 -160,-263 -27,-55 -55,-105 -63,-111 -10,-7 -15,-31 -16,-75 -1,-35 -8,-75 -16,-89 -9,-16 -13,-47 -11,-86 1,-39 -4,-76 -13,-99 -20,-46 -20,-95 -2,-139 11,-26 14,-95 15,-292 1,-143 1,-274 0,-293 0,-18 2,-35 5,-38 9,-9 45,18 51,39 4,13 19,35 32,50 27,28 30,34 76,120 16,29 37,60 48,70 10,9 19,20 19,25 0,4 6,20 14,34 7,14 16,43 20,64 4,21 18,53 32,70 16,22 26,51 30,93 4,34 13,67 20,73 8,6 14,28 14,48 0,20 5,42 11,48 6,6 11,31 11,55 -1,24 6,54 15,67 12,18 16,56 17,166 1,87 6,148 13,156 20,26 25,75 8,89 -18,15 -20,57 -3,62 8,3 14,33 16,84 2,43 9,93 16,109 18,39 36,98 36,114 0,7 9,24 20,38 39,50 19,91 -20,43 z"
       id="path13"
       style="fill:#ffffff" /><path
       d="m 10750,11266 c 0,-20 35,-79 55,-93 14,-10 52,-43 83,-74 31,-31 76,-68 100,-83 24,-15 46,-34 49,-42 3,-8 19,-22 35,-30 16,-9 44,-30 61,-48 18,-17 55,-40 82,-50 28,-10 55,-23 61,-28 6,-4 19,-5 28,-2 12,5 30,-6 59,-34 27,-26 55,-43 80,-47 20,-4 40,-11 43,-16 3,-5 20,-9 37,-9 21,0 39,-8 51,-21 12,-15 25,-20 44,-16 14,3 39,-1 56,-8 45,-18 132,-45 146,-45 6,0 23,-9 37,-20 18,-14 41,-20 76,-20 28,0 58,-6 66,-13 9,-7 36,-20 61,-27 25,-8 61,-22 80,-32 19,-10 40,-18 47,-18 6,0 24,-11 40,-24 15,-13 37,-26 48,-30 11,-3 35,-20 54,-36 18,-17 36,-29 38,-26 8,8 -25,74 -48,97 -10,10 -30,40 -43,66 -14,26 -39,66 -55,88 -17,22 -51,70 -76,108 -26,37 -54,71 -63,76 -9,5 -39,30 -67,56 -49,46 -193,146 -227,158 -10,4 -18,11 -18,16 0,5 -15,13 -32,16 -18,4 -37,11 -43,15 -12,9 -93,33 -184,54 -35,9 -72,23 -82,32 -16,14 -23,15 -45,5 -22,-9 -31,-9 -50,4 -15,10 -47,15 -91,15 -42,1 -75,6 -86,15 -11,8 -32,11 -50,8 -18,-2 -52,1 -77,7 -25,6 -58,11 -74,10 -16,0 -43,8 -60,18 -27,16 -146,39 -146,28 z"
       id="path14"
       style="fill:#ffffff" /><path
       d="m 1304,10707 c -28,-28 -57,-67 -64,-86 -8,-19 -25,-46 -39,-61 -27,-27 -101,-161 -101,-182 0,-6 -12,-26 -26,-45 -14,-19 -28,-52 -31,-74 -3,-22 -10,-42 -14,-45 -5,-3 -9,-14 -9,-25 0,-11 -7,-30 -16,-44 -12,-19 -13,-27 -3,-43 10,-16 8,-27 -10,-66 -21,-43 -23,-57 -19,-189 2,-119 6,-147 22,-174 18,-28 18,-35 6,-58 -12,-23 -12,-29 3,-54 9,-16 17,-45 17,-64 0,-19 7,-48 15,-63 8,-16 15,-46 15,-66 0,-20 5,-40 10,-43 6,-3 10,-31 10,-62 0,-34 7,-66 17,-84 15,-25 15,-33 4,-65 -11,-29 -11,-45 -1,-83 7,-25 16,-49 20,-54 3,-4 17,17 30,48 13,30 26,55 30,55 12,0 70,129 70,157 0,16 14,48 30,72 20,29 30,57 30,80 0,20 7,46 15,58 8,11 18,53 21,92 4,40 11,74 15,77 5,3 9,47 9,98 0,66 4,98 15,112 19,24 19,88 1,117 -26,40 -24,753 2,779 6,6 12,18 12,25 0,28 -37,11 -86,-40 z"
       id="path15"
       style="fill:#ffffff" /><path
       d="m 11327,10665 c 10,-13 24,-25 31,-25 26,0 72,-31 72,-47 0,-9 -7,-24 -16,-34 -14,-16 -12,-22 28,-74 53,-70 134,-154 171,-178 15,-10 27,-23 27,-30 0,-6 17,-23 38,-37 20,-13 49,-37 63,-52 14,-15 42,-34 62,-43 20,-8 37,-20 37,-25 0,-6 10,-10 23,-10 13,0 36,-13 51,-29 16,-16 39,-32 52,-35 14,-4 46,-20 73,-36 26,-17 53,-30 60,-30 6,0 11,-4 11,-10 0,-5 7,-10 16,-10 15,0 102,-32 138,-52 10,-5 40,-16 67,-24 26,-8 50,-18 53,-23 3,-5 32,-21 63,-36 32,-15 65,-31 73,-36 8,-4 35,-18 60,-30 25,-13 70,-45 99,-72 69,-62 97,-80 111,-72 7,4 6,15 -3,33 -8,15 -22,45 -31,67 -10,22 -24,53 -32,68 -8,16 -14,36 -14,46 0,10 -13,35 -30,57 -16,21 -30,49 -30,61 0,13 -11,29 -30,39 -16,10 -34,29 -39,43 -18,50 -144,176 -303,302 -34,27 -85,52 -128,64 -14,4 -41,19 -60,34 -19,15 -46,31 -60,34 -14,3 -50,13 -80,23 -30,9 -75,19 -100,23 -25,4 -55,13 -67,19 -12,7 -30,12 -39,12 -10,0 -25,7 -35,15 -10,10 -45,18 -90,22 -72,6 -170,44 -207,80 -7,7 -26,13 -42,13 -16,0 -32,5 -35,10 -3,6 -11,10 -16,10 -5,0 -2,-11 8,-25 z"
       id="path16"
       style="fill:#ffffff" /><path
       d="m 860,10013 c 0,-11 -11,-29 -25,-41 -14,-12 -25,-32 -25,-44 0,-13 -14,-36 -30,-52 -16,-16 -33,-38 -36,-49 -4,-12 -13,-27 -20,-35 -8,-7 -14,-22 -14,-32 0,-10 -4,-22 -10,-25 -5,-3 -10,-16 -10,-28 0,-12 -7,-30 -15,-41 -8,-10 -17,-38 -21,-62 -3,-25 -10,-47 -15,-50 -5,-3 -9,-20 -9,-38 0,-19 -6,-39 -14,-45 -18,-15 -28,-101 -29,-261 -2,-108 1,-129 18,-158 16,-27 17,-36 7,-52 -10,-17 -9,-25 9,-49 13,-18 19,-36 15,-47 -6,-16 18,-99 36,-119 4,-5 8,-19 8,-31 0,-13 4,-25 9,-29 9,-5 40,-95 47,-135 2,-8 6,-30 9,-47 3,-18 10,-33 15,-33 6,0 10,-11 10,-24 0,-14 5,-28 10,-31 6,-3 10,-14 10,-24 0,-10 7,-32 16,-50 9,-17 13,-39 10,-48 -4,-8 -1,-22 5,-29 6,-8 11,-31 11,-52 -1,-59 12,-70 37,-29 11,19 21,39 21,44 0,6 7,24 16,42 9,18 21,67 27,109 5,42 16,84 23,93 8,8 14,37 14,64 0,31 6,55 16,67 35,38 34,455 -2,535 -8,17 -14,51 -14,75 0,23 -7,51 -15,62 -8,11 -12,30 -8,47 3,18 -1,38 -11,54 -9,13 -16,44 -16,67 0,24 -7,54 -16,67 -14,19 -14,27 -4,46 9,18 9,27 0,46 -9,16 -13,80 -14,203 -1,134 -4,180 -13,183 -8,3 -13,-4 -13,-14 z"
       id="path17"
       style="fill:#ffffff" /><path
       d="m 11814,10016 c -6,-14 23,-71 54,-106 21,-24 56,-80 92,-151 19,-35 47,-80 62,-99 15,-19 28,-40 28,-47 0,-6 14,-20 30,-30 17,-9 33,-26 36,-38 21,-67 249,-256 424,-352 19,-10 62,-37 95,-58 33,-22 67,-44 77,-50 9,-5 40,-24 70,-42 29,-18 70,-48 90,-68 20,-19 41,-35 46,-35 11,0 154,-138 195,-189 20,-24 31,-31 39,-23 7,7 4,18 -11,38 -13,17 -21,41 -21,65 0,22 -4,39 -10,39 -5,0 -10,16 -10,35 0,19 -9,52 -20,72 -11,21 -20,52 -20,70 0,18 -4,33 -9,33 -4,0 -25,35 -45,78 -21,42 -42,85 -47,95 -6,10 -19,36 -30,57 -11,21 -29,40 -39,43 -11,3 -23,13 -27,24 -21,54 -114,152 -199,208 -30,20 -54,40 -54,46 0,5 -10,9 -23,9 -12,0 -28,9 -35,20 -7,11 -18,20 -26,20 -7,0 -19,7 -26,15 -7,8 -19,15 -27,15 -8,0 -29,11 -47,25 -18,14 -39,25 -47,25 -8,0 -23,6 -34,14 -11,7 -39,17 -62,20 -22,4 -49,16 -59,27 -9,10 -34,24 -56,29 -21,6 -38,15 -38,20 0,6 -15,10 -33,10 -36,0 -99,30 -138,66 -14,13 -32,24 -40,24 -8,0 -34,14 -57,31 -35,26 -43,28 -48,15 z"
       id="path18"
       style="fill:#ffffff" /><path
       d="m 10870,9634 c -25,-7 -58,-13 -73,-13 -15,-1 -56,-7 -90,-15 -34,-8 -105,-22 -157,-31 -52,-9 -120,-22 -150,-30 -67,-16 -141,-33 -195,-44 -37,-8 -127,-32 -250,-67 -27,-8 -63,-18 -80,-23 -52,-14 -199,-63 -232,-77 -17,-8 -36,-14 -42,-14 -6,0 -27,-7 -48,-16 -21,-9 -51,-22 -68,-29 -16,-7 -70,-29 -118,-49 -512,-214 -1024,-599 -1420,-1071 -254,-301 -397,-593 -397,-808 0,-72 4,-96 25,-140 48,-100 129,-161 276,-206 182,-56 352,-74 732,-78 357,-5 335,1 301,-80 -9,-21 -22,-51 -29,-68 -15,-36 -142,-291 -158,-320 -10,-18 -85,-142 -120,-200 -7,-11 -24,-36 -39,-56 -16,-20 -28,-40 -28,-43 0,-7 -93,-135 -213,-291 -194,-253 -455,-538 -647,-706 -152,-133 -406,-309 -421,-291 -14,17 -56,202 -69,307 -10,77 -28,194 -41,267 -5,31 -14,107 -20,170 -5,62 -12,120 -16,128 -3,8 -9,67 -13,130 -4,63 -13,162 -19,220 -20,188 -40,373 -52,475 -6,55 -15,138 -19,185 -11,118 -29,260 -46,357 -8,45 -14,97 -14,115 0,18 -4,49 -10,68 -5,19 -14,69 -19,110 -5,41 -15,102 -21,135 -7,33 -18,94 -26,135 -8,41 -20,95 -26,120 -6,25 -14,63 -19,85 -4,22 -14,63 -23,90 -8,28 -21,75 -29,105 -9,30 -25,80 -37,110 -12,30 -25,66 -29,80 -8,24 -42,102 -79,180 -31,64 -122,213 -180,293 -74,104 -264,296 -372,378 -47,35 -89,67 -95,71 -28,21 -115,75 -150,93 -22,11 -47,25 -55,31 -24,17 -229,100 -295,119 -33,10 -78,23 -100,30 -41,13 -152,33 -330,60 -115,17 -409,20 -525,4 -41,-5 -104,-14 -140,-18 -395,-51 -849,-264 -1191,-559 -161,-140 -371,-359 -476,-498 -91,-120 -173,-238 -186,-264 -4,-8 -16,-28 -26,-45 -11,-16 -29,-48 -41,-70 -12,-22 -36,-65 -52,-95 -42,-76 -52,-95 -88,-175 -52,-115 -70,-159 -105,-255 -7,-19 -19,-53 -27,-75 -31,-84 -40,-111 -48,-145 -4,-19 -13,-48 -18,-65 -12,-34 -34,-121 -56,-215 -8,-36 -19,-87 -26,-115 -17,-71 -41,-217 -50,-305 -4,-41 -13,-111 -18,-155 -17,-131 -23,-409 -13,-585 9,-159 15,-205 47,-370 103,-527 382,-960 822,-1275 34,-25 64,-45 66,-45 2,0 30,-18 63,-39 64,-43 266,-147 353,-181 30,-12 69,-27 85,-34 69,-30 155,-56 285,-87 47,-11 110,-27 140,-34 142,-35 466,-69 650,-68 163,0 450,20 570,39 306,48 522,95 675,146 17,5 44,13 60,18 17,5 46,14 65,21 72,25 106,37 148,53 23,9 59,22 80,30 91,34 139,54 282,118 106,47 388,193 404,209 16,14 33,10 40,-8 12,-35 89,-167 106,-183 3,-3 18,-23 35,-45 98,-133 276,-273 425,-334 30,-12 64,-26 75,-30 26,-11 111,-35 205,-58 64,-15 117,-18 360,-17 194,0 304,5 345,13 33,8 85,17 115,22 71,10 166,32 255,59 39,12 84,25 100,29 17,5 41,13 55,19 14,5 45,18 70,27 152,60 403,186 508,256 24,16 45,29 47,29 3,0 31,19 64,42 32,24 68,50 81,58 93,63 254,195 363,300 38,36 72,66 77,68 7,3 206,214 290,308 116,128 366,471 410,559 5,11 25,47 44,80 19,33 51,94 71,135 20,41 41,82 46,90 5,8 12,22 15,30 3,8 18,47 33,85 28,71 37,96 70,195 30,89 49,160 66,240 9,41 21,95 27,120 6,25 13,108 16,185 3,118 1,153 -16,220 -23,90 -43,146 -58,166 -5,8 -16,28 -24,44 -8,17 -49,64 -90,106 -73,74 -151,127 -237,162 -92,37 -121,46 -213,63 -84,16 -153,19 -600,19 h -505 l 4,65 c 2,36 7,75 12,88 14,36 11,250 -5,323 -16,76 -55,161 -94,203 -34,36 -118,91 -153,99 -36,9 -53,-11 -39,-47 5,-15 10,-102 10,-194 0,-169 -17,-332 -46,-422 -8,-25 -14,-56 -14,-70 0,-47 -12,-50 -199,-49 -165,0 -254,5 -476,28 -150,16 -247,58 -296,129 -21,31 -24,46 -23,126 2,293 227,652 572,915 79,59 210,151 217,151 2,0 23,13 47,29 123,81 377,210 543,273 175,67 290,94 450,104 113,8 167,-8 210,-60 56,-70 47,-172 -40,-451 -6,-22 -20,-67 -30,-100 -9,-33 -24,-82 -33,-110 -32,-105 -40,-132 -56,-185 -8,-30 -29,-96 -46,-147 -31,-94 -36,-123 -22,-123 4,0 32,9 62,21 30,11 69,24 85,29 17,5 55,18 85,30 74,28 130,49 160,60 14,5 50,18 80,30 30,12 67,25 81,30 14,4 34,12 45,18 18,9 37,17 147,58 23,9 56,22 72,29 17,7 66,27 110,45 44,17 94,38 110,45 17,7 55,23 85,35 81,33 82,35 74,99 -3,31 -11,61 -16,67 -9,13 -43,5 -148,-36 -30,-11 -73,-28 -95,-36 -108,-42 -214,-41 -234,2 -15,34 -14,58 10,139 11,39 24,84 29,100 4,17 18,57 30,90 11,33 25,74 29,91 5,18 12,37 16,44 4,7 11,26 15,44 5,17 18,56 30,86 12,30 25,69 30,85 5,17 18,55 30,85 12,30 25,66 30,80 8,23 27,75 67,175 18,48 22,87 8,90 -5,1 -30,-4 -55,-11 z M 4840,9304 c 167,-25 276,-54 400,-107 258,-108 478,-302 657,-576 55,-84 155,-287 198,-401 10,-25 21,-54 26,-65 14,-32 40,-107 48,-140 5,-16 13,-41 18,-55 27,-67 114,-413 133,-525 10,-62 27,-157 45,-250 18,-96 36,-225 45,-320 4,-44 13,-127 19,-185 34,-301 67,-642 75,-760 2,-30 9,-102 15,-160 27,-243 34,-320 41,-410 9,-114 27,-235 46,-311 8,-30 14,-69 14,-86 0,-17 7,-50 15,-73 8,-23 15,-54 15,-67 0,-14 7,-47 15,-74 8,-27 22,-71 30,-98 30,-98 34,-94 -167,-185 -32,-14 -82,-37 -110,-50 -29,-13 -78,-34 -108,-46 -30,-12 -68,-28 -85,-35 -16,-7 -49,-20 -72,-29 -24,-9 -60,-23 -80,-31 -21,-8 -63,-22 -93,-31 -30,-9 -70,-23 -88,-30 -18,-8 -42,-14 -53,-14 -11,0 -30,-5 -42,-12 -12,-6 -40,-15 -62,-19 -22,-4 -60,-13 -85,-19 -134,-35 -271,-61 -395,-75 -27,-4 -75,-10 -105,-15 -78,-12 -521,-11 -605,1 -38,5 -90,12 -115,15 -104,11 -329,66 -450,109 -119,43 -259,101 -320,133 -105,56 -126,67 -142,81 -29,23 -22,29 45,35 137,14 378,82 522,146 17,7 59,26 95,42 36,16 72,33 80,38 8,5 38,21 65,35 28,14 64,34 80,45 17,11 39,24 50,30 42,21 154,98 270,184 178,132 434,371 565,526 30,35 63,73 73,85 106,116 401,546 451,655 3,8 22,42 41,75 36,62 165,322 204,410 43,98 49,111 66,155 9,25 23,57 31,72 27,51 21,58 -53,58 -999,3 -998,3 -990,-40 2,-11 23,-17 87,-21 127,-10 195,-39 233,-99 18,-29 22,-49 21,-116 0,-115 -32,-200 -121,-319 -96,-129 -214,-215 -393,-285 -22,-9 -87,-16 -175,-18 -138,-3 -175,3 -235,39 -8,5 -24,13 -35,18 -45,20 -112,111 -139,189 -15,44 -18,73 -13,175 2,67 9,136 15,152 6,17 18,57 27,90 66,230 247,490 445,639 69,51 79,57 165,99 180,89 337,127 517,127 123,0 190,-17 227,-58 21,-23 23,-32 17,-80 -4,-29 -13,-67 -22,-83 -8,-16 -12,-34 -9,-39 16,-26 85,4 85,36 0,7 9,30 19,51 11,21 33,67 49,103 16,36 44,96 62,134 23,51 29,71 20,80 -7,7 -68,11 -183,10 -169,-1 -241,-10 -382,-49 -27,-8 -59,-16 -70,-19 -11,-2 -45,-14 -75,-26 -30,-12 -66,-25 -80,-29 -14,-5 -50,-20 -80,-33 -30,-14 -62,-28 -70,-32 -8,-3 -23,-10 -32,-16 -10,-5 -26,-14 -35,-19 -10,-6 -36,-19 -57,-31 -269,-146 -531,-414 -656,-670 -132,-271 -164,-502 -91,-660 37,-81 111,-160 184,-197 86,-42 155,-55 272,-50 147,7 241,31 377,97 67,33 78,39 146,83 24,15 45,27 48,27 16,0 211,160 276,226 103,104 148,173 189,289 23,63 25,182 4,209 -8,11 -15,28 -15,38 0,17 10,18 138,16 l 137,-3 -2,-40 c -3,-35 -22,-102 -51,-175 -42,-104 -58,-143 -84,-200 -42,-92 -129,-265 -165,-330 -17,-30 -41,-73 -53,-95 -12,-22 -30,-53 -41,-70 -10,-16 -22,-37 -26,-45 -4,-8 -19,-33 -34,-55 -14,-22 -51,-78 -82,-125 -118,-179 -219,-311 -329,-432 -40,-44 -78,-88 -84,-97 -22,-30 -230,-210 -337,-291 -59,-44 -141,-100 -184,-125 -43,-25 -85,-49 -93,-55 -42,-26 -187,-91 -280,-125 -88,-31 -107,-37 -140,-45 -19,-4 -55,-13 -80,-19 -106,-26 -255,-41 -401,-41 -155,0 -155,0 -202,30 -122,77 -441,438 -517,585 -6,11 -26,47 -45,80 -51,92 -120,237 -136,285 -4,14 -17,50 -29,80 -23,58 -46,132 -59,190 -21,87 -34,139 -47,186 -8,28 -15,78 -16,111 -1,54 2,65 37,118 116,174 291,303 490,360 86,25 323,25 397,0 129,-44 221,-98 311,-184 68,-64 174,-200 207,-266 6,-11 19,-33 29,-50 11,-16 48,-88 84,-160 65,-131 91,-186 172,-370 91,-206 204,-433 217,-437 7,-3 26,1 42,7 32,12 48,19 154,67 34,15 68,28 75,28 7,0 21,6 32,14 11,7 32,16 47,20 26,6 58,31 58,45 0,4 -6,16 -14,26 -11,15 -17,17 -27,8 -8,-6 -41,-20 -73,-32 -54,-19 -61,-19 -91,-5 -35,17 -80,74 -112,144 -52,113 -85,183 -133,285 -29,61 -70,148 -92,195 -45,96 -104,215 -122,245 -77,136 -134,214 -225,305 -64,64 -159,134 -211,155 -8,4 -23,11 -32,16 -10,5 -43,17 -75,28 -288,93 -666,31 -913,-152 -89,-66 -185,-153 -215,-197 -16,-22 -31,-37 -35,-33 -30,34 -37,408 -12,653 20,199 81,493 134,645 5,17 14,46 18,65 4,19 18,60 30,90 12,30 24,64 27,75 3,11 11,35 19,53 8,17 20,47 28,65 22,53 146,300 166,332 11,17 23,37 27,45 12,26 64,102 125,182 240,318 542,554 891,697 126,51 335,103 487,121 52,6 96,13 99,16 12,11 335,3 431,-12 z M 9980,6901 c 64,-11 135,-25 215,-41 99,-20 221,-80 294,-146 65,-59 110,-142 132,-244 25,-116 15,-312 -23,-470 -6,-25 -14,-61 -18,-80 -10,-44 -35,-135 -51,-180 -31,-92 -40,-114 -84,-215 -17,-39 -84,-175 -95,-195 -124,-208 -187,-301 -300,-435 -156,-187 -396,-411 -578,-541 -93,-66 -193,-134 -196,-134 -3,0 -39,-20 -80,-45 -42,-25 -78,-45 -81,-45 -2,0 -41,-18 -88,-39 -83,-40 -145,-65 -202,-81 -16,-5 -61,-18 -100,-30 -113,-33 -221,-51 -360,-61 -156,-11 -373,-3 -435,16 -25,8 -58,15 -74,17 -52,5 -39,25 41,64 129,62 206,118 328,237 64,62 62,61 155,39 97,-24 200,-42 320,-57 123,-16 134,-15 250,11 30,7 129,73 144,97 8,12 7,20 -1,28 -10,10 -26,8 -72,-6 -48,-14 -78,-17 -158,-11 -116,7 -209,19 -278,34 -28,6 -75,16 -106,22 -102,20 -103,16 34,186 67,83 160,200 207,260 47,60 112,142 146,184 33,41 95,120 137,175 119,155 285,365 343,435 242,289 432,460 510,460 36,0 64,-26 64,-61 0,-22 -12,-37 -62,-75 -88,-66 -191,-157 -266,-234 -63,-64 -212,-242 -212,-253 0,-3 -19,-34 -42,-69 -39,-57 -80,-128 -98,-168 -4,-8 -14,-31 -23,-50 -9,-19 -22,-63 -29,-97 -21,-106 15,-150 112,-136 19,3 42,11 50,18 8,7 20,14 27,16 28,9 123,99 195,183 214,254 367,506 408,676 5,19 15,59 22,89 13,53 26,67 86,97 6,3 12,17 12,31 0,22 -3,24 -22,18 -59,-18 -76,-17 -83,4 -4,12 -19,33 -33,46 -23,22 -36,25 -99,25 -90,0 -169,-34 -287,-123 -73,-56 -260,-234 -317,-302 -13,-16 -49,-59 -79,-95 -30,-36 -69,-84 -86,-105 -51,-64 -204,-255 -237,-295 -6,-8 -37,-47 -67,-85 -30,-39 -57,-72 -60,-75 -4,-3 -34,-41 -68,-85 -34,-44 -89,-114 -122,-155 -33,-41 -88,-111 -122,-154 -34,-44 -69,-87 -77,-96 -9,-10 -35,-42 -59,-74 -45,-59 -53,-63 -99,-45 -15,6 -97,10 -184,10 -131,0 -165,-3 -217,-20 -101,-34 -206,-97 -267,-160 -46,-48 -68,-51 -88,-13 -41,77 -87,174 -87,185 0,7 -7,21 -15,31 -8,11 -15,27 -15,36 0,9 -6,30 -14,46 -8,16 -16,45 -18,64 -3,33 0,36 77,88 185,125 410,302 605,477 70,63 321,314 381,380 133,148 190,214 230,265 23,30 46,57 49,60 35,27 335,455 390,555 12,22 35,63 51,90 16,28 62,117 102,198 l 72,148 340,-4 c 195,-2 368,-9 405,-16 z m -90,-997 c 0,-9 -6,-28 -13,-42 -8,-15 -21,-43 -30,-62 -29,-65 -58,-125 -92,-185 -19,-33 -37,-67 -41,-75 -4,-8 -20,-31 -36,-51 -15,-20 -28,-41 -28,-46 0,-4 -10,-19 -23,-33 -13,-14 -34,-41 -48,-61 -66,-98 -238,-272 -286,-290 -13,-5 -28,-3 -39,6 -16,11 -17,17 -5,56 12,39 69,163 96,207 51,84 164,239 204,282 9,9 43,48 76,85 56,64 240,225 257,225 4,0 8,-7 8,-16 z M 8063,4348 c 26,-5 49,-13 51,-17 5,-8 -103,-116 -179,-178 -65,-53 -169,-109 -221,-117 -37,-7 -45,-4 -91,32 -53,42 -123,119 -123,135 0,17 50,77 64,77 6,0 17,5 24,12 26,26 95,43 262,68 61,9 140,4 213,-12 z"
       id="path19"
       style="fill:#ffffff" /><path
       d="m 12213,9296 c 9,-7 17,-22 17,-33 0,-10 7,-28 15,-39 8,-10 15,-24 15,-31 0,-6 5,-24 11,-40 6,-15 13,-40 14,-55 1,-15 17,-50 34,-78 18,-29 34,-65 38,-81 3,-16 12,-34 19,-40 8,-6 14,-18 14,-27 0,-8 10,-25 23,-37 12,-12 37,-47 56,-78 18,-32 38,-57 43,-57 5,0 15,-15 23,-33 8,-19 26,-45 40,-58 15,-13 32,-30 38,-37 49,-55 173,-173 187,-177 9,-3 41,-28 70,-56 30,-28 67,-55 81,-61 14,-5 31,-19 37,-32 6,-13 42,-44 80,-70 38,-25 81,-61 96,-80 14,-19 32,-41 40,-48 7,-8 21,-28 30,-46 9,-17 27,-39 41,-48 13,-9 36,-36 50,-60 14,-25 30,-42 36,-39 5,4 9,35 9,70 0,49 -4,66 -17,73 -11,7 -18,27 -21,66 -2,31 -8,59 -13,62 -5,3 -9,20 -9,38 0,18 -7,41 -15,52 -8,10 -15,31 -15,45 0,15 -7,32 -15,39 -8,7 -15,28 -15,47 0,23 -13,56 -35,93 -19,32 -35,67 -35,78 0,11 -11,29 -25,40 -14,11 -25,24 -25,30 0,6 -19,30 -42,54 -22,23 -47,57 -54,73 -7,17 -38,51 -69,75 -32,25 -75,60 -97,78 -22,17 -46,32 -54,32 -7,0 -23,14 -36,30 -12,17 -26,30 -31,30 -14,0 -151,83 -160,97 -4,7 -17,13 -27,13 -11,0 -34,13 -52,28 -18,16 -45,35 -59,43 -87,46 -109,61 -127,84 -11,14 -26,25 -34,25 -8,0 -27,14 -43,30 -16,17 -34,30 -39,30 -6,0 -3,-7 7,-14 z"
       id="path20"
       style="fill:#ffffff" /><path
       d="m 466,9178 c -9,-17 -16,-37 -16,-45 0,-8 -11,-31 -25,-51 -14,-20 -25,-43 -25,-51 0,-17 -19,-78 -31,-103 -5,-10 -9,-28 -9,-41 0,-12 -6,-31 -14,-42 -7,-11 -13,-35 -13,-54 0,-21 -6,-37 -16,-43 -19,-10 -23,-53 -7,-63 19,-12 8,-61 -32,-139 -6,-12 -6,-22 1,-29 6,-6 11,-28 11,-49 0,-22 7,-52 15,-69 12,-21 13,-34 5,-48 -14,-27 -13,-51 3,-70 16,-19 37,-88 37,-121 0,-12 9,-34 21,-48 13,-17 18,-34 15,-49 -4,-14 -1,-25 10,-31 18,-10 74,-133 74,-161 0,-10 13,-32 28,-49 16,-18 41,-56 55,-84 15,-29 38,-73 52,-98 14,-25 25,-52 25,-62 0,-9 5,-20 10,-23 6,-3 10,-13 10,-20 0,-21 42,-115 51,-115 15,0 39,65 39,107 0,29 7,54 21,72 19,26 20,33 10,83 -12,55 -5,98 18,113 7,4 11,45 11,101 0,75 -3,96 -15,100 -11,5 -15,23 -15,73 0,39 -6,78 -15,95 -8,15 -15,41 -15,57 0,17 -6,40 -14,52 -7,12 -16,58 -20,102 -5,69 -9,83 -31,100 -15,12 -25,31 -25,46 0,13 -16,62 -35,108 -19,45 -35,90 -35,100 0,9 -4,21 -9,27 -5,5 -17,45 -26,88 -9,44 -23,92 -32,107 -13,21 -14,31 -5,42 9,10 9,16 0,25 -8,8 -12,45 -11,102 0,50 -3,90 -7,90 -5,0 -16,-14 -24,-32 z"
       id="path21"
       style="fill:#ffffff" /><path
       d="m 12500,8527 c 0,-8 9,-24 20,-36 13,-16 17,-31 13,-52 -3,-16 -1,-35 4,-41 11,-13 19,-47 31,-133 4,-28 20,-72 35,-97 15,-26 27,-62 27,-80 0,-19 11,-49 24,-69 37,-54 86,-148 86,-164 0,-7 8,-20 18,-27 9,-7 24,-25 32,-39 35,-61 71,-109 90,-119 13,-7 20,-21 20,-39 0,-31 15,-51 122,-165 38,-39 87,-94 110,-123 24,-28 60,-59 80,-69 43,-20 63,-39 73,-74 4,-14 25,-45 46,-71 22,-25 39,-50 39,-56 0,-17 51,-111 66,-124 12,-9 14,1 16,62 4,163 -5,324 -18,344 -8,11 -14,36 -14,57 0,20 -4,40 -10,43 -5,3 -10,19 -10,34 0,15 -7,36 -15,47 -8,10 -15,28 -15,39 0,11 -7,29 -15,39 -8,11 -15,30 -15,42 0,13 -6,29 -13,36 -7,7 -24,37 -37,66 -14,28 -28,52 -32,52 -5,0 -8,6 -8,14 0,27 -151,205 -227,266 -30,25 -80,69 -111,98 -30,28 -61,52 -69,52 -7,0 -45,32 -84,70 -39,39 -76,70 -83,70 -14,0 -156,138 -156,151 0,5 -4,9 -10,9 -5,0 -10,-6 -10,-13 z"
       id="path22"
       style="fill:#ffffff" /><path
       d="m 200,8306 c 0,-13 -7,-37 -15,-52 -8,-16 -15,-39 -15,-51 0,-13 -4,-23 -10,-23 -5,0 -10,-17 -10,-38 0,-21 -6,-46 -14,-57 -19,-27 -27,-100 -32,-294 -4,-146 -3,-165 13,-183 10,-11 18,-36 19,-56 4,-70 17,-127 39,-169 12,-22 26,-58 30,-79 4,-22 23,-61 43,-88 44,-60 58,-82 72,-118 6,-14 18,-29 26,-32 8,-3 14,-13 14,-22 0,-9 11,-25 24,-35 14,-11 27,-32 31,-48 3,-16 12,-32 19,-34 16,-6 85,-107 116,-168 13,-24 40,-63 61,-86 29,-31 39,-51 39,-75 0,-18 4,-40 10,-48 7,-12 10,-11 15,5 4,11 11,28 16,37 14,27 12,401 -3,416 -7,7 -11,39 -11,77 0,43 -4,68 -13,76 -8,7 -14,30 -14,55 0,24 -9,63 -19,86 -11,24 -25,63 -31,88 -7,25 -16,52 -21,60 -5,8 -12,22 -15,30 -6,15 -37,81 -53,110 -57,108 -127,249 -166,335 -20,44 -40,87 -44,95 -5,9 -12,36 -16,60 -4,25 -17,57 -29,71 -18,21 -23,41 -24,94 -1,37 -5,71 -8,76 -10,17 -24,9 -24,-15 z"
       id="path23"
       style="fill:#ffffff" /><path
       d="m 12716,7688 c -2,-7 -4,-20 -5,-28 0,-8 -2,-46 -4,-85 -4,-59 -2,-74 15,-98 16,-22 19,-38 15,-71 -4,-26 -2,-47 5,-54 10,-10 19,-46 35,-142 3,-19 11,-40 18,-47 7,-7 11,-22 8,-33 -3,-12 7,-38 26,-68 20,-31 31,-62 31,-85 0,-19 6,-42 13,-49 7,-7 22,-29 34,-48 12,-19 32,-46 45,-60 13,-14 34,-48 48,-75 14,-28 28,-51 32,-53 4,-2 24,-31 44,-65 20,-34 47,-73 60,-87 52,-57 154,-236 154,-269 0,-6 4,-11 9,-11 11,0 71,-119 71,-141 0,-8 7,-24 15,-35 8,-10 15,-27 15,-36 0,-35 20,-17 20,17 0,20 7,50 16,68 25,48 25,462 1,498 -10,13 -17,40 -17,61 0,20 -4,40 -10,43 -5,3 -10,16 -10,28 0,12 -6,33 -13,47 -8,15 -16,43 -20,63 -3,20 -17,51 -30,69 -13,18 -27,45 -31,61 -3,15 -10,27 -15,27 -13,0 -71,87 -71,105 0,8 -13,26 -29,41 -16,14 -31,38 -34,54 -6,26 -32,56 -214,249 -35,36 -63,69 -63,73 0,3 -15,12 -34,18 -26,8 -43,25 -68,67 -34,58 -55,75 -62,51 z"
       id="path24"
       style="fill:#ffffff" /><path
       d="m 44,7403 c -17,-51 -19,-92 -19,-338 1,-245 3,-284 18,-310 9,-16 17,-42 17,-56 0,-14 11,-48 25,-74 13,-27 27,-62 31,-79 3,-16 23,-55 44,-85 21,-31 48,-74 59,-97 12,-22 33,-51 46,-64 14,-13 25,-30 25,-38 0,-8 61,-74 135,-146 74,-72 135,-137 135,-143 0,-7 27,-42 59,-78 33,-36 63,-74 66,-85 3,-10 15,-22 26,-25 11,-4 25,-18 31,-31 17,-36 33,-24 35,27 1,30 -4,53 -18,71 -21,30 -26,97 -8,129 8,16 5,26 -15,51 -20,26 -22,35 -14,54 8,17 7,31 -6,58 -9,18 -16,45 -16,59 0,14 -4,29 -10,32 -5,3 -10,13 -10,22 0,8 -6,29 -13,46 -16,38 -43,120 -52,161 -3,17 -17,40 -30,52 -13,12 -27,35 -31,51 -8,31 -92,173 -102,173 -4,0 -23,24 -42,53 -19,28 -40,56 -47,60 -7,4 -17,24 -22,45 -6,21 -29,60 -51,87 -47,57 -150,228 -150,248 0,8 -9,22 -19,31 -10,10 -21,32 -25,49 -3,18 -9,56 -14,84 -5,29 -11,55 -14,58 -3,4 -14,-20 -24,-52 z"
       id="path25"
       style="fill:#ffffff" /><path
       d="m 12774,6925 c -4,-8 -3,-28 1,-43 11,-42 6,-114 -10,-139 -21,-31 -20,-159 0,-179 15,-16 19,-54 15,-156 -1,-37 2,-58 9,-58 6,0 11,-19 11,-44 0,-26 6,-48 15,-56 8,-7 15,-26 15,-42 0,-16 7,-42 14,-57 8,-15 18,-51 22,-80 4,-33 16,-63 30,-81 13,-15 24,-30 24,-33 0,-7 58,-136 71,-157 5,-8 15,-29 23,-46 8,-17 19,-35 25,-38 6,-4 11,-18 11,-30 0,-13 10,-38 23,-57 38,-57 67,-118 67,-144 0,-13 5,-27 10,-30 6,-3 10,-15 10,-25 0,-10 7,-25 15,-34 8,-8 15,-20 15,-26 0,-7 8,-25 17,-40 13,-23 14,-34 5,-54 -9,-19 -8,-27 4,-36 8,-7 14,-29 14,-50 0,-32 23,-72 34,-59 18,21 36,78 42,133 4,37 11,69 15,72 5,3 9,22 9,43 0,23 8,48 20,64 24,31 25,40 4,73 -15,23 -15,28 0,78 18,56 15,109 -7,154 -9,18 -7,29 6,51 21,36 22,57 1,69 -10,5 -18,28 -21,56 -3,25 -10,49 -14,52 -5,3 -9,18 -9,33 0,15 -5,32 -11,38 -6,6 -15,31 -20,56 -4,25 -18,56 -31,70 -13,13 -32,50 -42,81 -11,32 -28,62 -38,67 -10,5 -18,14 -18,19 0,13 -75,124 -95,140 -8,7 -15,18 -15,25 0,6 -9,23 -21,36 -11,13 -27,36 -35,52 -8,15 -19,27 -23,27 -5,0 -26,34 -47,75 -21,41 -48,85 -61,97 -13,12 -23,29 -23,39 0,9 -7,22 -15,29 -8,7 -15,25 -15,41 0,32 -17,48 -26,24 z"
       id="path26"
       style="fill:#ffffff" /><path
       d="m 24,6475 c -4,-16 -4,-114 -1,-219 4,-145 9,-198 21,-221 9,-17 16,-42 16,-57 0,-15 5,-30 10,-33 6,-3 10,-17 10,-29 0,-13 7,-29 15,-36 9,-8 15,-30 15,-59 1,-36 7,-53 30,-81 17,-19 30,-38 30,-42 0,-5 22,-37 50,-73 27,-35 59,-79 70,-97 33,-56 202,-219 233,-225 17,-3 34,-17 43,-35 8,-16 34,-41 57,-56 23,-15 58,-42 77,-61 19,-18 53,-44 75,-58 22,-15 68,-55 102,-90 35,-34 66,-63 69,-63 4,0 3,12 0,28 -8,32 -22,100 -32,159 -3,24 -13,48 -20,54 -8,6 -14,24 -14,40 0,15 -4,31 -10,34 -5,3 -10,16 -10,28 0,13 -6,31 -14,42 -7,11 -16,34 -20,50 -7,31 -66,156 -78,165 -4,3 -18,30 -32,60 -13,30 -33,64 -43,75 -10,11 -36,46 -57,78 -21,31 -42,57 -47,57 -4,0 -20,20 -34,44 -14,24 -65,82 -113,128 -48,45 -108,111 -132,145 -25,35 -53,65 -62,68 -9,3 -28,26 -43,50 -14,25 -30,45 -35,45 -4,0 -13,15 -20,34 -6,18 -20,42 -30,51 -11,10 -20,25 -20,34 0,9 -11,34 -25,55 l -24,39 z"
       id="path27"
       style="fill:#ffffff" /><path
       d="m 12740,6006 c 0,-26 -6,-48 -14,-56 -10,-8 -15,-31 -15,-72 1,-45 -4,-63 -16,-72 -15,-11 -16,-27 -9,-157 5,-79 7,-151 5,-159 -13,-58 -12,-113 3,-135 10,-15 16,-46 16,-77 0,-30 6,-62 14,-73 13,-19 21,-49 46,-160 18,-78 31,-119 46,-136 15,-17 72,-165 81,-209 2,-14 8,-34 13,-45 5,-11 11,-36 15,-55 3,-19 11,-60 17,-90 6,-30 11,-109 12,-175 0,-66 5,-122 10,-125 5,-3 16,22 26,55 9,33 21,69 27,80 6,11 20,41 32,67 12,26 26,48 32,50 5,2 12,25 15,52 2,28 9,55 15,62 6,7 16,54 24,104 8,52 21,100 29,109 26,28 22,227 -5,303 -15,44 -18,65 -11,86 7,22 3,37 -20,80 -15,29 -28,62 -28,73 0,11 -9,37 -20,57 -38,72 -90,189 -90,205 0,8 -7,23 -16,32 -19,19 -144,261 -144,279 0,6 -9,28 -20,49 -11,20 -20,45 -20,55 0,21 -18,42 -37,42 -9,0 -13,-15 -13,-44 z"
       id="path28"
       style="fill:#ffffff" /><path
       d="m 101,5573 c 4,-21 13,-57 20,-81 8,-31 9,-50 1,-66 -8,-18 -7,-27 5,-39 9,-8 18,-38 21,-66 2,-28 9,-54 13,-57 5,-3 9,-18 9,-34 0,-16 7,-35 15,-44 8,-8 15,-23 15,-34 0,-11 7,-25 15,-32 8,-7 15,-26 15,-42 0,-32 56,-155 93,-202 12,-17 38,-46 58,-66 19,-21 41,-51 48,-69 8,-17 17,-31 22,-31 5,0 23,-14 40,-31 77,-75 370,-279 402,-279 8,0 34,-18 57,-40 23,-22 49,-40 58,-40 9,0 31,-14 49,-30 18,-17 40,-30 50,-30 10,0 31,-14 47,-30 16,-17 35,-30 42,-30 7,0 19,-9 27,-20 19,-27 31,-12 13,16 -8,12 -18,46 -22,75 -4,30 -18,71 -31,92 -20,32 -67,116 -110,197 -7,14 -13,33 -13,43 0,10 -5,23 -10,30 -6,7 -24,27 -40,46 -17,19 -30,39 -30,44 0,5 -16,27 -35,48 -19,22 -35,43 -35,47 0,12 -219,232 -231,232 -6,0 -38,27 -71,60 -34,33 -69,60 -78,60 -8,0 -33,21 -54,46 -21,25 -46,49 -56,52 -26,10 -190,163 -190,178 0,7 -20,36 -45,65 -25,29 -45,59 -45,66 0,10 -29,33 -43,33 -2,0 -1,-17 4,-37 z"
       id="path29"
       style="fill:#ffffff" /><path
       d="m 12590,5235 c -7,-8 -16,-32 -21,-53 -14,-65 -45,-171 -52,-178 -4,-4 -7,-26 -7,-49 0,-24 -6,-48 -14,-54 -20,-17 -29,-121 -28,-346 0,-230 8,-319 29,-352 10,-15 13,-34 9,-54 -3,-17 -1,-40 6,-52 7,-12 16,-44 20,-72 5,-27 14,-77 20,-110 5,-33 13,-161 17,-285 4,-153 9,-216 15,-197 9,29 18,41 79,109 19,21 37,52 41,69 3,18 17,46 29,63 34,45 57,94 64,140 3,23 12,50 19,61 8,11 14,32 14,47 0,15 5,30 10,33 6,3 10,22 10,42 0,19 7,50 16,68 26,56 8,376 -28,475 -9,26 -39,143 -44,175 -3,17 -9,39 -14,50 -5,11 -18,41 -29,67 -12,26 -21,51 -21,56 0,5 -7,23 -15,38 -8,16 -15,43 -15,59 0,20 -7,35 -21,43 -17,11 -20,20 -15,48 5,26 3,36 -9,40 -8,4 -15,18 -15,33 0,15 -8,44 -18,65 -16,33 -20,35 -32,21 z"
       id="path30"
       style="fill:#ffffff" /><path
       d="m 332,4680 c 0,-30 6,-62 13,-70 7,-8 15,-28 17,-45 6,-35 55,-179 75,-217 7,-14 13,-33 13,-42 0,-19 37,-78 102,-162 27,-34 48,-66 48,-71 0,-15 69,-91 88,-97 9,-3 28,-22 41,-41 13,-19 44,-48 70,-65 25,-17 64,-44 86,-60 22,-16 46,-29 54,-30 8,0 35,-13 60,-29 25,-16 58,-31 74,-35 15,-4 36,-14 47,-24 20,-16 99,-47 150,-59 14,-3 34,-13 45,-22 33,-27 82,-51 103,-51 11,0 25,-7 32,-15 11,-13 43,-30 167,-87 12,-6 24,-20 27,-32 4,-17 8,-18 18,-8 11,11 10,16 -4,26 -10,7 -18,20 -18,28 0,9 -6,21 -14,27 -8,7 -17,27 -20,45 -4,19 -24,53 -45,77 -21,24 -41,54 -45,67 -4,12 -11,22 -16,22 -5,0 -12,11 -17,24 -9,26 -39,68 -94,130 -20,23 -43,55 -52,71 -8,17 -47,59 -85,93 -76,67 -227,182 -240,182 -8,0 -27,13 -83,58 -34,28 -115,72 -132,72 -7,0 -30,14 -51,30 -22,17 -46,30 -53,30 -7,0 -13,4 -13,10 0,5 -16,16 -35,24 -19,8 -35,20 -35,25 0,6 -12,17 -27,25 -32,17 -199,177 -230,221 l -21,29 z"
       id="path31"
       style="fill:#ffffff" /><path
       d="m 12343,4466 c -35,-37 -100,-171 -108,-223 -4,-31 -14,-53 -30,-65 -14,-11 -25,-32 -28,-55 -2,-21 -9,-53 -16,-70 -27,-79 -32,-102 -38,-168 -3,-39 -13,-81 -22,-95 -14,-21 -16,-59 -16,-250 0,-197 2,-230 18,-263 16,-34 18,-61 15,-233 -2,-153 -6,-197 -17,-203 -9,-6 -14,-30 -15,-74 -1,-38 -7,-71 -15,-81 -11,-14 -11,-16 1,-16 18,0 54,34 86,81 13,19 48,67 78,108 30,41 54,80 54,87 0,7 4,14 9,16 9,3 45,67 102,178 16,30 29,65 29,76 0,12 9,33 20,47 11,14 20,39 20,55 0,17 5,43 10,58 8,20 7,41 -1,74 -10,41 -10,51 4,71 22,31 23,112 1,130 -11,9 -14,22 -10,43 10,47 6,119 -6,133 -6,7 -8,29 -5,49 4,25 0,47 -13,72 -11,20 -20,53 -20,72 0,19 -7,43 -14,53 -7,9 -11,28 -9,40 3,13 -1,43 -8,68 -7,24 -14,62 -15,84 -1,23 -9,56 -19,74 -14,27 -15,38 -5,56 6,12 10,38 8,58 l -3,36 z"
       id="path32"
       style="fill:#ffffff" /><path
       d="m 660,3842 c 0,-28 28,-89 62,-133 16,-20 28,-43 28,-50 0,-8 11,-34 25,-58 14,-23 25,-52 25,-63 0,-12 20,-43 45,-69 25,-26 45,-53 45,-59 0,-6 20,-30 45,-53 25,-24 45,-48 45,-54 0,-6 24,-29 52,-50 29,-21 77,-59 107,-86 30,-26 66,-53 80,-61 134,-70 167,-86 182,-86 9,0 22,-7 29,-15 7,-8 21,-15 31,-15 10,0 21,-4 24,-10 3,-5 19,-10 34,-10 15,0 54,-9 86,-20 32,-11 66,-20 75,-20 16,0 59,-17 102,-41 10,-5 33,-9 52,-9 18,0 39,-6 45,-14 6,-7 34,-17 62,-20 28,-4 58,-13 66,-21 7,-8 20,-12 28,-9 7,3 34,-6 58,-20 36,-22 46,-24 50,-12 3,8 -1,20 -9,26 -8,7 -14,18 -14,26 0,14 -46,64 -58,64 -4,0 -21,23 -37,51 -17,28 -38,55 -47,60 -10,5 -18,15 -18,22 0,20 -172,185 -200,192 -14,3 -37,23 -52,44 -16,22 -48,48 -81,64 -30,14 -57,33 -60,40 -5,14 -83,57 -103,57 -5,0 -54,23 -108,50 -55,28 -107,50 -117,50 -10,0 -21,5 -24,10 -3,6 -13,10 -22,10 -9,0 -26,8 -37,18 -12,10 -41,26 -66,36 -88,35 -168,77 -174,91 -3,8 -15,15 -27,15 -12,0 -37,11 -55,25 -18,14 -37,25 -42,25 -5,0 -17,11 -26,25 -10,14 -29,31 -44,37 -15,7 -35,18 -44,26 -16,14 -18,13 -18,-6 z"
       id="path33"
       style="fill:#ffffff" /><path
       d="m 11962,3697 c -12,-13 -22,-27 -22,-32 0,-13 -70,-115 -79,-115 -5,0 -16,-20 -25,-43 -9,-24 -30,-59 -46,-77 -17,-19 -30,-44 -30,-56 0,-24 -44,-119 -60,-129 -6,-3 -10,-26 -10,-49 0,-27 -6,-48 -15,-56 -8,-7 -15,-27 -15,-46 0,-18 -4,-36 -10,-39 -5,-3 -10,-23 -10,-43 0,-20 -9,-50 -20,-67 -17,-25 -19,-40 -14,-91 5,-47 2,-67 -9,-85 -27,-41 -32,-105 -12,-149 13,-28 15,-43 8,-52 -14,-17 -27,-129 -24,-199 2,-38 -3,-67 -14,-88 -9,-18 -14,-40 -11,-49 3,-9 -1,-30 -9,-46 -8,-15 -15,-43 -15,-62 0,-18 -6,-37 -14,-41 -7,-4 -16,-21 -18,-38 -3,-16 -9,-38 -13,-47 -13,-32 17,-20 52,21 18,22 44,43 56,47 29,8 67,44 67,61 0,20 79,111 101,118 11,4 19,12 19,20 0,7 16,30 35,51 19,22 35,44 35,50 0,6 18,44 40,85 22,40 43,83 46,95 3,12 12,25 19,28 8,3 13,19 12,41 -1,21 5,40 13,45 35,22 64,436 39,580 -8,48 -12,147 -10,278 2,118 -1,202 -6,202 -5,0 -19,-10 -31,-23 z"
       id="path34"
       style="fill:#ffffff" /><path
       d="m 1110,3066 c 0,-11 31,-75 39,-80 5,-4 13,-21 17,-39 6,-31 23,-56 95,-140 20,-23 44,-56 52,-73 21,-41 186,-194 210,-194 9,0 22,-10 28,-22 6,-13 36,-36 67,-52 31,-15 80,-40 107,-54 28,-14 64,-31 80,-38 17,-6 41,-17 55,-22 14,-6 44,-14 68,-17 23,-4 42,-11 42,-16 0,-12 37,-12 45,1 3,6 42,10 85,10 43,0 82,-4 85,-10 3,-5 19,-10 34,-10 16,0 40,-9 54,-20 17,-14 41,-20 74,-20 26,0 56,-7 66,-15 12,-8 31,-11 52,-8 25,4 41,0 60,-15 20,-16 35,-20 57,-15 22,4 43,-1 74,-18 65,-35 76,-15 29,47 -54,70 -174,185 -207,196 -15,5 -30,18 -33,27 -3,10 -29,33 -58,52 -58,37 -201,109 -216,109 -6,0 -18,11 -27,25 -9,14 -23,25 -31,25 -9,0 -30,8 -47,19 -17,10 -56,26 -86,36 -30,10 -63,21 -72,26 -10,5 -29,9 -42,9 -14,0 -32,7 -41,16 -9,9 -39,19 -68,21 -29,3 -64,11 -79,19 -15,8 -38,14 -51,14 -14,0 -30,7 -37,15 -7,8 -24,15 -38,15 -14,0 -48,11 -76,24 -28,13 -67,26 -87,30 -41,7 -147,57 -194,90 -45,32 -85,57 -85,52 z"
       id="path35"
       style="fill:#ffffff" /><path
       d="m 11487,3007 c -9,-19 -43,-58 -76,-89 -33,-30 -66,-67 -72,-82 -7,-14 -16,-26 -20,-26 -4,0 -17,-17 -30,-37 -12,-21 -32,-49 -44,-63 -13,-14 -26,-36 -30,-50 -9,-35 -38,-90 -47,-90 -5,0 -8,-10 -8,-21 0,-12 -15,-47 -34,-78 -45,-74 -67,-128 -59,-147 3,-8 -4,-28 -15,-43 -13,-18 -25,-57 -31,-106 -6,-43 -16,-84 -22,-91 -6,-8 -9,-24 -5,-37 3,-14 -1,-33 -10,-46 -11,-15 -14,-33 -10,-54 4,-20 1,-40 -8,-52 -7,-11 -16,-38 -19,-60 -8,-61 -27,-128 -41,-145 -15,-18 -46,-99 -46,-120 0,-8 -7,-28 -15,-43 -8,-15 -17,-43 -21,-63 -3,-19 -10,-37 -15,-40 -5,-3 -14,-14 -19,-25 -16,-28 11,-25 44,6 15,14 34,25 41,25 8,0 27,13 41,30 15,16 36,32 48,36 47,14 326,326 326,364 0,4 6,13 14,19 20,17 66,107 66,129 0,11 8,30 18,43 11,13 22,44 25,69 3,25 13,59 21,75 9,17 16,46 16,66 0,20 7,51 16,69 12,23 15,47 11,84 -3,28 -1,83 4,121 14,94 30,297 30,365 -1,29 4,57 10,60 5,4 12,23 16,43 5,32 3,37 -15,37 -13,0 -25,-12 -35,-33 z"
       id="path36"
       style="fill:#ffffff" /><path
       d="m 10910,2370 c -27,-27 -53,-50 -59,-50 -6,0 -43,-31 -82,-70 -38,-38 -73,-70 -78,-70 -4,0 -18,-20 -30,-45 -12,-24 -34,-54 -48,-65 -14,-11 -34,-36 -45,-56 -10,-20 -23,-41 -29,-48 -44,-53 -109,-154 -109,-171 0,-11 -7,-29 -15,-39 -8,-11 -15,-28 -15,-37 0,-20 -32,-79 -42,-79 -5,0 -8,-6 -8,-12 0,-7 -7,-25 -14,-40 -8,-16 -18,-49 -22,-75 -4,-27 -13,-57 -20,-68 -8,-11 -14,-26 -14,-35 0,-8 -14,-42 -30,-75 -16,-33 -30,-70 -30,-83 0,-12 -13,-41 -30,-64 -16,-22 -30,-51 -30,-62 0,-26 -78,-162 -120,-207 -16,-19 -30,-37 -30,-41 0,-17 38,-6 60,17 13,14 29,25 36,25 6,0 17,7 24,15 7,8 25,15 41,15 17,0 41,12 61,29 18,16 52,39 76,51 23,12 57,36 75,54 19,17 55,46 80,65 56,40 117,101 117,117 0,6 17,31 38,55 52,62 108,149 116,181 3,15 15,35 25,45 11,10 22,36 26,58 4,22 12,45 17,51 5,7 11,26 13,44 2,18 12,49 21,69 10,20 18,56 17,81 -1,24 2,49 6,55 5,5 11,34 13,64 3,29 11,57 18,61 8,5 10,17 7,32 -4,15 1,39 13,62 10,21 22,69 26,107 4,38 11,69 15,69 5,0 9,10 9,23 0,12 7,35 15,51 34,65 -1,63 -65,-4 z"
       id="path37"
       style="fill:#ffffff" /><path
       d="m 1670,2320 c 0,-5 9,-10 21,-10 11,0 17,5 14,10 -3,6 -13,10 -21,10 -8,0 -14,-4 -14,-10 z"
       id="path38"
       style="fill:#ffffff" /><path
       d="m 1825,2240 c -28,-19 -54,-72 -36,-78 4,-1 45,-39 90,-83 45,-44 87,-79 94,-76 6,2 34,-12 61,-30 28,-18 59,-33 69,-33 12,0 20,-10 24,-31 3,-17 17,-37 32,-47 14,-9 28,-19 31,-22 10,-11 97,-48 150,-65 102,-32 116,-35 143,-35 14,0 45,-10 67,-21 40,-21 42,-21 87,-4 35,13 47,15 53,5 10,-16 59,-19 260,-18 261,1 394,-3 405,-13 5,-5 18,-9 29,-9 16,0 12,7 -20,35 -21,19 -52,42 -68,51 -16,9 -40,29 -53,45 -14,16 -30,29 -37,29 -6,0 -28,11 -47,24 -20,14 -58,37 -85,52 -27,15 -55,35 -61,45 -14,19 -91,59 -115,59 -9,0 -21,7 -28,15 -7,8 -21,15 -31,15 -11,0 -36,9 -56,20 -21,11 -48,20 -60,20 -12,0 -25,5 -28,10 -3,6 -23,10 -44,10 -20,0 -46,7 -57,15 -10,8 -40,15 -66,15 -26,0 -50,5 -54,11 -9,16 -91,5 -113,-15 -20,-18 -57,-21 -66,-6 -3,6 -14,10 -24,10 -10,0 -26,9 -37,21 -13,15 -26,19 -45,15 -19,-3 -32,1 -45,15 -11,12 -24,17 -37,13 -11,-3 -36,-2 -56,4 -20,5 -65,17 -101,27 -36,9 -72,18 -80,20 -8,2 -28,-5 -45,-15 z"
       id="path39"
       style="fill:#ffffff" /><path
       d="m 10315,1860 c -3,-5 -23,-17 -43,-27 -20,-9 -48,-25 -61,-35 -13,-10 -32,-18 -42,-18 -10,0 -23,-9 -29,-19 -5,-11 -27,-30 -47,-42 -49,-30 -323,-303 -323,-322 0,-7 -12,-24 -26,-38 -32,-30 -111,-160 -120,-197 -4,-15 -12,-34 -19,-42 -7,-8 -30,-46 -50,-85 -33,-61 -49,-86 -94,-141 -6,-7 -13,-28 -17,-48 -3,-20 -18,-49 -33,-64 -27,-27 -61,-90 -61,-111 0,-6 -10,-16 -22,-22 -13,-6 -39,-33 -58,-61 -19,-28 -47,-64 -62,-79 -21,-20 -24,-28 -14,-32 22,-9 86,15 97,35 6,12 21,18 42,18 31,0 114,39 257,119 8,5 34,17 57,27 46,21 287,249 318,302 11,18 23,32 26,32 4,0 11,10 15,22 4,13 14,34 24,48 57,85 70,109 70,132 0,15 5,30 10,33 6,3 10,15 10,25 0,11 8,27 19,37 18,18 24,36 41,126 5,27 13,54 18,60 5,7 15,32 22,57 8,25 24,58 37,73 13,17 23,42 23,61 0,17 4,36 9,42 5,5 18,32 29,59 11,28 23,58 27,68 5,12 3,17 -8,17 -9,0 -19,-4 -22,-10 z"
       id="path40"
       style="fill:#ffffff" /><path
       d="m 2305,1690 c -3,-6 1,-13 9,-16 8,-3 18,-15 21,-25 4,-11 34,-42 68,-70 34,-27 78,-65 97,-83 19,-19 44,-37 56,-40 11,-3 36,-21 56,-39 19,-17 57,-43 84,-56 27,-13 60,-33 73,-43 13,-10 33,-18 45,-18 11,0 36,-9 54,-20 18,-11 45,-20 60,-20 15,-1 38,-7 52,-15 14,-8 38,-14 53,-15 16,0 42,-8 58,-17 24,-14 33,-15 49,-5 23,14 57,16 62,3 5,-16 313,-17 323,-1 6,10 144,34 152,26 3,-3 15,0 27,6 12,7 107,14 231,18 140,4 200,9 180,14 -16,5 -40,19 -53,32 -13,13 -28,24 -35,24 -7,0 -32,16 -56,35 -24,19 -52,35 -62,35 -11,0 -19,4 -19,8 0,8 -69,42 -86,42 -5,0 -25,11 -45,24 -20,14 -60,29 -90,34 -29,6 -55,15 -57,21 -2,6 -18,11 -37,11 -18,0 -38,6 -44,14 -12,15 -79,27 -145,27 -22,-1 -45,4 -53,11 -9,7 -112,12 -321,15 -169,3 -311,9 -317,14 -5,5 -48,9 -95,9 -63,0 -92,4 -109,16 -17,12 -26,13 -34,5 -17,-17 -32,-14 -84,19 -51,33 -59,35 -68,20 z"
       id="path41"
       style="fill:#ffffff" /><path
       d="m 9610,1423 c -8,-3 -17,-9 -20,-14 -8,-11 -196,-99 -213,-99 -8,0 -20,-7 -27,-15 -7,-8 -19,-15 -26,-15 -8,0 -19,-9 -26,-20 -7,-11 -19,-20 -26,-20 -6,0 -20,-9 -30,-21 -9,-11 -38,-32 -64,-46 -27,-14 -48,-29 -48,-33 0,-12 -70,-80 -83,-81 -7,0 -34,-27 -62,-61 -27,-33 -65,-74 -82,-91 -18,-17 -33,-36 -33,-42 0,-7 -7,-19 -17,-26 -22,-19 -163,-210 -163,-221 0,-13 -62,-88 -137,-165 -34,-36 -65,-73 -68,-83 -3,-11 -22,-29 -42,-41 -19,-12 -51,-37 -69,-56 -19,-18 -45,-38 -59,-43 -15,-6 -23,-14 -20,-20 9,-14 72,-13 98,2 12,6 42,15 67,19 25,4 63,13 85,19 22,7 55,13 73,15 18,1 38,7 45,14 6,6 23,11 37,11 16,0 37,12 55,30 15,16 42,32 59,36 17,4 40,13 51,20 11,8 27,14 36,14 9,0 24,11 33,25 9,14 20,25 25,25 14,0 112,68 136,94 12,13 31,29 43,35 11,6 40,40 64,76 23,36 45,65 48,65 8,0 70,95 70,107 0,5 11,20 24,33 14,12 28,37 32,54 4,17 17,45 30,62 13,17 24,38 24,47 0,8 6,22 13,29 6,7 23,36 36,63 13,28 34,64 47,81 13,17 26,44 30,60 4,15 27,53 51,82 53,66 55,114 3,95 z"
       id="path42"
       style="fill:#ffffff" /><path
       d="m 3980,1171 c 0,-5 -42,-9 -92,-9 -134,0 -249,-11 -283,-26 -24,-11 -295,-31 -350,-26 -164,14 -201,16 -208,13 -12,-7 22,-41 47,-49 11,-3 39,-23 61,-44 22,-21 85,-61 140,-90 55,-28 104,-56 109,-61 6,-5 21,-9 34,-9 13,0 56,-16 96,-35 52,-25 87,-35 120,-35 27,0 53,-6 61,-14 19,-19 372,-17 384,2 4,7 30,14 57,15 53,4 170,32 221,53 17,8 40,14 51,14 11,0 32,6 47,14 15,8 34,12 42,9 20,-8 103,17 136,40 22,15 34,17 51,9 16,-7 30,-5 56,8 26,13 49,17 90,13 l 55,-5 -25,21 c -14,11 -44,23 -67,27 -23,3 -48,12 -54,20 -6,8 -20,14 -30,14 -10,0 -21,5 -24,10 -3,6 -16,10 -27,10 -12,0 -29,7 -39,16 -10,9 -39,19 -64,22 -25,2 -48,9 -51,13 -3,5 -24,9 -47,9 -24,0 -51,6 -62,14 -26,17 -91,28 -187,30 -42,0 -80,4 -84,9 -11,10 -164,9 -164,-2 z"
       id="path43"
       style="fill:#ffffff" /><path
       d="m 8907,1094 c -4,-4 -30,-11 -58,-15 -28,-5 -60,-16 -69,-24 -10,-9 -38,-19 -62,-22 -24,-3 -57,-16 -75,-29 -18,-14 -46,-24 -65,-24 -19,0 -43,-7 -54,-15 -12,-8 -50,-29 -85,-47 -80,-42 -229,-139 -229,-150 0,-4 -19,-20 -42,-34 -42,-26 -78,-59 -228,-211 -215,-218 -339,-337 -373,-359 -21,-14 -40,-31 -44,-39 -3,-8 -14,-15 -24,-15 -11,0 -36,-9 -56,-20 -21,-11 -43,-20 -50,-20 -7,0 -13,-5 -13,-11 0,-7 36,-9 113,-5 61,3 138,5 170,5 32,0 64,4 70,9 7,5 43,12 81,15 56,5 75,12 96,32 16,16 38,25 57,25 17,0 36,7 43,15 7,8 23,15 37,15 14,0 37,13 54,29 16,16 42,32 58,36 16,3 35,13 42,21 6,8 17,14 24,14 6,0 24,13 38,30 15,17 34,30 42,30 17,0 155,132 155,148 0,6 21,35 46,64 76,89 84,100 101,132 15,30 65,94 111,144 12,14 22,29 22,33 0,5 9,17 20,27 11,10 30,38 43,63 13,24 51,66 84,94 34,28 62,53 62,58 1,9 -33,10 -42,1 z"
       id="path44"
       style="fill:#ffffff" /><path
       d="m 4995,881 c -11,-4 -50,-6 -86,-3 -50,3 -72,1 -91,-12 -14,-9 -44,-18 -66,-20 -23,-2 -48,-9 -57,-16 -9,-7 -27,-10 -48,-6 -22,4 -40,1 -52,-9 -11,-8 -33,-15 -50,-15 -16,0 -50,-9 -74,-20 -24,-11 -57,-20 -75,-20 -17,0 -40,-7 -50,-15 -11,-8 -37,-15 -57,-15 -21,0 -40,-4 -43,-9 -9,-14 -121,-24 -283,-25 -144,-1 -151,-2 -136,-18 9,-10 24,-18 33,-18 9,0 31,-16 50,-35 19,-19 38,-35 44,-35 5,0 30,-10 55,-22 25,-12 56,-21 68,-20 11,2 24,-2 28,-7 3,-6 13,-11 22,-11 9,0 26,-9 37,-19 12,-11 50,-25 86,-31 36,-7 73,-16 82,-21 10,-5 34,-9 54,-9 19,0 45,-5 56,-11 25,-14 229,-13 283,0 22,6 56,11 75,11 19,0 44,7 54,15 11,8 32,15 47,15 15,0 31,5 34,10 3,6 17,10 29,10 13,0 29,6 35,14 6,7 33,16 61,20 27,4 61,13 77,21 15,8 36,15 45,15 9,0 20,5 23,10 3,6 14,10 23,10 9,1 33,14 52,30 19,17 44,30 56,30 12,0 33,9 47,20 14,11 39,20 57,20 17,0 55,11 83,24 29,13 78,31 110,40 31,9 57,20 57,25 0,15 -13,20 -29,12 -17,-9 -93,6 -121,24 -8,5 -57,15 -108,21 -61,8 -100,18 -112,29 -16,15 -33,17 -95,13 -42,-3 -78,-1 -81,3 -6,11 -122,10 -149,0 z"
       id="path45"
       style="fill:#ffffff" /><path
       d="m 8037,829 c -11,-6 -37,-8 -62,-5 -30,5 -47,3 -57,-7 -14,-14 -95,-29 -157,-28 -19,0 -44,-7 -55,-15 -11,-8 -31,-14 -43,-14 -13,0 -23,-4 -23,-9 0,-5 -10,-12 -22,-16 -13,-3 -32,-10 -43,-15 -11,-5 -42,-16 -70,-26 -27,-9 -59,-26 -71,-36 -11,-10 -27,-18 -36,-18 -9,0 -18,-3 -20,-8 -7,-16 -87,-72 -102,-72 -9,0 -19,-7 -22,-15 -4,-8 -13,-15 -21,-15 -8,0 -31,-16 -49,-34 -19,-19 -44,-38 -54,-41 -11,-4 -25,-15 -30,-26 -6,-10 -17,-19 -25,-19 -8,0 -27,-14 -42,-30 -15,-17 -43,-41 -63,-52 -19,-12 -39,-28 -43,-35 -4,-7 -45,-37 -90,-67 -45,-30 -93,-66 -106,-80 -14,-15 -43,-31 -64,-37 -22,-6 -57,-21 -77,-34 -20,-13 -50,-25 -66,-27 -42,-5 -32,-22 18,-30 80,-12 496,0 531,16 18,8 52,17 77,21 25,3 54,10 65,14 43,17 120,55 125,60 3,3 23,15 45,26 49,25 140,92 179,134 17,17 36,31 43,31 17,0 186,171 221,223 37,55 179,194 240,235 28,19 52,41 52,48 0,17 -56,18 -83,3 z"
       id="path46"
       style="fill:#ffffff" /><path
       d="m 5976,723 c -4,-5 -42,-11 -84,-15 -113,-11 -161,-19 -168,-29 -3,-5 -25,-9 -50,-9 -24,0 -44,-4 -44,-9 0,-5 -15,-13 -32,-16 -18,-4 -37,-11 -43,-15 -5,-4 -28,-13 -50,-20 -22,-7 -52,-22 -68,-34 -16,-12 -41,-20 -63,-19 -22,1 -37,-4 -41,-13 -3,-8 -13,-14 -22,-14 -9,0 -32,-11 -51,-25 -19,-14 -46,-25 -61,-25 -32,0 -79,-19 -79,-32 0,-4 -11,-8 -24,-8 -13,0 -29,-6 -35,-14 -13,-15 -66,-27 -118,-27 -18,0 -33,-4 -33,-8 0,-5 -28,-11 -62,-15 -34,-3 -69,-13 -78,-21 -9,-8 -34,-15 -56,-15 l -39,-1 31,-13 c 18,-8 35,-19 38,-25 4,-6 21,-11 37,-11 17,0 37,-6 45,-14 8,-8 36,-18 62,-21 26,-3 57,-10 70,-16 13,-5 34,-9 48,-9 14,0 36,-7 50,-16 18,-12 37,-15 72,-10 37,5 53,2 77,-14 43,-29 182,-29 215,0 18,15 31,18 61,14 26,-4 44,-1 60,10 13,9 33,16 45,16 26,0 214,66 228,80 6,6 17,10 26,10 19,0 203,104 243,137 16,12 34,23 41,23 7,0 30,14 51,30 21,17 43,30 50,30 6,0 20,9 30,20 10,11 26,20 36,20 10,0 21,5 24,10 3,6 17,10 31,10 13,0 24,4 24,10 0,8 40,30 83,44 55,18 -36,57 -129,55 -38,-1 -80,3 -91,10 -24,12 -245,16 -257,4 z"
       id="path47"
       style="fill:#ffffff" /><path
       d="m 6950,700 c -8,-5 -36,-10 -62,-10 -26,0 -50,-5 -54,-11 -4,-7 -22,-9 -43,-6 -27,3 -43,-1 -60,-14 -13,-11 -39,-19 -60,-19 -20,0 -45,-7 -55,-15 -11,-8 -28,-15 -37,-15 -24,0 -148,-57 -184,-84 -17,-13 -44,-26 -62,-30 -17,-4 -42,-17 -55,-29 -13,-12 -35,-28 -48,-35 -14,-7 -38,-21 -55,-32 -16,-11 -46,-27 -65,-36 -19,-9 -47,-27 -62,-39 -15,-13 -44,-29 -65,-35 -21,-7 -57,-26 -81,-41 -24,-16 -47,-29 -52,-29 -4,0 -21,-6 -37,-14 -15,-8 -46,-20 -68,-26 -22,-7 -47,-18 -55,-26 -8,-7 -35,-14 -60,-16 -34,-2 -46,-7 -48,-21 -3,-15 1,-18 16,-13 10,4 32,0 48,-9 16,-8 43,-15 61,-15 17,0 35,-4 38,-10 6,-10 14,-11 290,-11 259,0 262,0 275,16 8,9 30,15 59,15 34,0 67,11 125,40 44,22 86,40 94,40 7,0 26,12 41,28 15,15 53,40 84,55 30,16 58,35 61,43 3,8 22,22 41,30 19,8 35,18 35,23 0,18 32,41 56,41 16,0 28,8 35,23 5,12 37,42 70,66 33,24 68,54 78,67 11,13 25,24 33,24 8,0 27,14 43,30 16,17 32,30 37,30 13,0 108,61 108,69 0,12 -342,13 -360,1 z"
       id="path48"
       style="fill:#ffffff" /></g></svg>
